<?xml version="1.0" encoding="UTF-8"?>
<!DOCTYPE svg PUBLIC "-//W3C//DTD SVG 1.1//EN" "http://www.w3.org/Graphics/SVG/1.1/DTD/svg11.dtd">
<svg xmlns="http://www.w3.org/2000/svg" version="1.1" width="300px" height="300px" style="shape-rendering:geometricPrecision; text-rendering:geometricPrecision; image-rendering:optimizeQuality; fill-rule:evenodd; clip-rule:evenodd" xmlns:xlink="http://www.w3.org/1999/xlink">
<g><path style="opacity:0.987" fill="#47273d" d="M 112.5,23.5 C 112.5,24.8333 113.167,25.5 114.5,25.5C 115.209,26.404 116.209,26.7373 117.5,26.5C 118.492,26.6716 119.158,26.3382 119.5,25.5C 120.167,25.5 120.833,25.5 121.5,25.5C 122.492,25.6716 123.158,25.3382 123.5,24.5C 123.833,24.5 124.167,24.5 124.5,24.5C 125.492,24.6716 126.158,24.3382 126.5,23.5C 127.167,23.5 127.833,23.5 128.5,23.5C 129.492,23.6716 130.158,23.3382 130.5,22.5C 130.833,22.5 131.167,22.5 131.5,22.5C 132.492,22.6716 133.158,22.3382 133.5,21.5C 134.492,21.6716 135.158,21.3382 135.5,20.5C 135.833,20.5 136.167,20.5 136.5,20.5C 136.833,20.5 137.167,20.5 137.5,20.5C 136.175,25.2509 136.509,29.9176 138.5,34.5C 134.717,35.1224 131.05,36.1224 127.5,37.5C 123.896,38.6515 120.229,39.6515 116.5,40.5C 115.833,40.1667 115.167,39.8333 114.5,39.5C 113.668,36.839 112.834,34.1724 112,31.5C 111.481,30.4844 110.647,29.8178 109.5,29.5C 104.335,30.7059 99.3347,32.0393 94.5,33.5C 89.5615,34.2313 84.8949,35.5646 80.5,37.5C 71.7581,39.3521 63.0915,41.5188 54.5,44C 52.5789,44.3603 50.9122,45.1936 49.5,46.5C 50.5,49.8333 51.5,53.1667 52.5,56.5C 53.1667,56.8333 53.8333,57.1667 54.5,57.5C 58.1706,56.3686 61.8372,55.3686 65.5,54.5C 66.3727,58.8776 67.706,62.8776 69.5,66.5C 65.4061,67.7625 61.2395,69.0958 57,70.5C 55.955,69.6266 55.1217,68.6266 54.5,67.5C 54.1667,64.8333 53.8333,64.8333 53.5,67.5C 53.5,68.1667 53.1667,68.5 52.5,68.5C 52.1307,66.5588 51.464,64.7255 50.5,63C 47.5629,62.6386 44.7296,63.1386 42,64.5C 40.5232,63.556 39.5232,62.2226 39,60.5C 38.2208,63.0972 37.7208,63.0972 37.5,60.5C 37.5,59.8333 37.5,59.1667 37.5,58.5C 38.8333,57.8333 38.8333,57.1667 37.5,56.5C 37.5,56.1667 37.5,55.8333 37.5,55.5C 37.7373,54.209 37.404,53.209 36.5,52.5C 36.5,52.1667 36.5,51.8333 36.5,51.5C 36.2627,50.209 36.596,49.209 37.5,48.5C 38.4916,48.6716 39.1583,48.3382 39.5,47.5C 39.8333,47.5 40.1667,47.5 40.5,47.5C 41.791,47.7373 42.791,47.404 43.5,46.5C 43.8333,46.5 44.1667,46.5 44.5,46.5C 45.4916,46.6716 46.1583,46.3382 46.5,45.5C 46.5,45.1667 46.5,44.8333 46.5,44.5C 46.5,43.8333 46.5,43.1667 46.5,42.5C 47.8333,41.8333 47.8333,41.1667 46.5,40.5C 45.6618,40.1583 45.3284,39.4916 45.5,38.5C 45.1667,38.5 44.8333,38.5 44.5,38.5C 43.5269,36.9317 43.3603,35.265 44,33.5C 45.0875,35.9316 45.5875,35.5983 45.5,32.5C 46.552,32.6495 47.552,32.4828 48.5,32C 47.1667,31.6667 45.8333,31.3333 44.5,31C 65.1723,25.1654 85.839,19.3321 106.5,13.5C 107.584,14.6651 108.417,15.9984 109,17.5C 109.317,15.6992 109.984,15.3659 111,16.5C 111.662,18.8127 112.162,21.146 112.5,23.5 Z"/></g>
<g><path style="opacity:0.981" fill="#2c1e1f" d="M 151.5,21.5 C 151.167,21.5 150.833,21.5 150.5,21.5C 150.167,20.1667 149.833,20.1667 149.5,21.5C 149.911,25.2215 150.578,28.8881 151.5,32.5C 150.883,32.3893 150.383,32.056 150,31.5C 146.39,32.4478 142.89,33.4478 139.5,34.5C 139.167,34.5 138.833,34.5 138.5,34.5C 136.509,29.9176 136.175,25.2509 137.5,20.5C 139.477,19.4931 139.143,19.4931 136.5,20.5C 136.167,20.5 135.833,20.5 135.5,20.5C 134.508,20.3284 133.842,20.6618 133.5,21.5C 133.158,22.3382 132.492,22.6716 131.5,22.5C 130.151,21.3559 129.817,21.3559 130.5,22.5C 130.158,23.3382 129.492,23.6716 128.5,23.5C 126.952,22.266 126.285,22.266 126.5,23.5C 126.158,24.3382 125.492,24.6716 124.5,24.5C 123.151,23.3559 122.817,23.3559 123.5,24.5C 123.158,25.3382 122.492,25.6716 121.5,25.5C 119.952,24.266 119.285,24.266 119.5,25.5C 119.158,26.3382 118.492,26.6716 117.5,26.5C 116.791,25.596 115.791,25.2627 114.5,25.5C 113.167,25.5 112.5,24.8333 112.5,23.5C 113.265,23.9234 114.098,24.2568 115,24.5C 125.573,21.732 136.073,18.732 146.5,15.5C 147.584,16.6651 148.417,17.9984 149,19.5C 149.317,17.6992 149.984,17.3659 151,18.5C 151.483,19.448 151.649,20.448 151.5,21.5 Z"/></g>
<g><path style="opacity:0.91" fill="#989598" d="M 163.5,28.5 C 168.635,29.9863 173.302,32.3196 177.5,35.5C 174.913,37.6378 171.913,38.4711 168.5,38C 164.673,36.254 161.007,34.254 157.5,32C 159.364,30.5693 161.364,29.4026 163.5,28.5 Z"/></g>
<g><path style="opacity:1" fill="#231113" d="M 151.5,32.5 C 152.363,34.4214 153.029,36.4214 153.5,38.5C 154.015,40.8945 154.681,43.2278 155.5,45.5C 155.5,45.8333 155.5,46.1667 155.5,46.5C 156.167,48.5 156.833,50.5 157.5,52.5C 157.5,53.1667 157.5,53.8333 157.5,54.5C 157.389,55.1174 157.056,55.6174 156.5,56C 153.48,56.9011 150.48,57.7345 147.5,58.5C 145.73,56.4976 144.397,54.1643 143.5,51.5C 143.634,49.7085 143.301,48.0418 142.5,46.5C 141.5,42.5007 140.5,38.5007 139.5,34.5C 142.89,33.4478 146.39,32.4478 150,31.5C 150.383,32.056 150.883,32.3893 151.5,32.5 Z"/></g>
<g><path style="opacity:1" fill="#704443" d="M 138.5,34.5 C 138.833,34.5 139.167,34.5 139.5,34.5C 140.5,38.5007 141.5,42.5007 142.5,46.5C 138.207,47.6564 133.874,48.6564 129.5,49.5C 128.705,45.5236 128.038,41.5236 127.5,37.5C 131.05,36.1224 134.717,35.1224 138.5,34.5 Z"/></g>
<g><path style="opacity:1" fill="#857a84" d="M 88.5,48.5 C 80.7063,50.0994 73.0396,52.0994 65.5,54.5C 61.8372,55.3686 58.1706,56.3686 54.5,57.5C 53.8333,57.1667 53.1667,56.8333 52.5,56.5C 51.5,53.1667 50.5,49.8333 49.5,46.5C 50.9122,45.1936 52.5789,44.3603 54.5,44C 63.0915,41.5188 71.7581,39.3521 80.5,37.5C 82.861,37.3259 85.1944,36.9926 87.5,36.5C 87.7678,39.7396 88.4345,42.9063 89.5,46C 89.2568,46.9021 88.9234,47.7354 88.5,48.5 Z"/></g>
<g><path style="opacity:0.913" fill="#989598" d="M 184.5,38.5 C 192.178,41.6721 199.511,45.3388 206.5,49.5C 205.5,50.1667 204.5,50.8333 203.5,51.5C 201.545,52.3235 199.545,52.4901 197.5,52C 192.661,50.0787 187.994,47.912 183.5,45.5C 181.981,44.5902 180.315,43.7568 178.5,43C 180.684,41.6366 182.684,40.1366 184.5,38.5 Z"/></g>
<g><path style="opacity:1" fill="#626161" d="M 153.5,38.5 C 157.134,39.3969 160.634,40.7302 164,42.5C 168.698,38.3542 173.198,38.5208 177.5,43C 172.749,46.086 167.916,46.2527 163,43.5C 160.528,44.3219 158.028,44.9886 155.5,45.5C 154.681,43.2278 154.015,40.8945 153.5,38.5 Z"/></g>
<g><path style="opacity:1" fill="#6f666f" d="M 94.5,33.5 C 96.288,33.2148 97.9547,33.5481 99.5,34.5C 100.551,37.757 101.218,41.0903 101.5,44.5C 100.833,44.5 100.5,44.8333 100.5,45.5C 96.3269,45.8766 92.3269,46.8766 88.5,48.5C 88.9234,47.7354 89.2568,46.9021 89.5,46C 88.4345,42.9063 87.7678,39.7396 87.5,36.5C 85.1944,36.9926 82.861,37.3259 80.5,37.5C 84.8949,35.5646 89.5615,34.2313 94.5,33.5 Z"/></g>
<g><path style="opacity:1" fill="#5d545b" d="M 127.5,37.5 C 128.038,41.5236 128.705,45.5236 129.5,49.5C 133.874,48.6564 138.207,47.6564 142.5,46.5C 143.301,48.0418 143.634,49.7085 143.5,51.5C 143.833,54.1667 144.167,56.8333 144.5,59.5C 141.032,60.1009 137.699,61.1009 134.5,62.5C 134.167,62.5 133.833,62.5 133.5,62.5C 132.631,58.8315 131.631,55.1648 130.5,51.5C 126.32,50.6601 122.32,51.3267 118.5,53.5C 118.167,53.5 117.833,53.5 117.5,53.5C 116.624,49.5384 115.958,45.5384 115.5,41.5C 110.761,42.1848 106.095,43.1848 101.5,44.5C 101.218,41.0903 100.551,37.757 99.5,34.5C 97.9547,33.5481 96.288,33.2148 94.5,33.5C 99.3347,32.0393 104.335,30.7059 109.5,29.5C 110.647,29.8178 111.481,30.4844 112,31.5C 112.834,34.1724 113.668,36.839 114.5,39.5C 115.167,39.8333 115.833,40.1667 116.5,40.5C 120.229,39.6515 123.896,38.6515 127.5,37.5 Z"/></g>
<g><path style="opacity:1" fill="#4e3c3e" d="M 117.5,53.5 C 113.055,53.8335 109.388,55.5002 106.5,58.5C 105.609,57.8902 104.609,57.5569 103.5,57.5C 104.278,56.8444 104.944,56.0111 105.5,55C 104.599,52.1289 103.599,49.2956 102.5,46.5C 102.043,45.7025 101.376,45.3691 100.5,45.5C 100.5,44.8333 100.833,44.5 101.5,44.5C 106.095,43.1848 110.761,42.1848 115.5,41.5C 115.958,45.5384 116.624,49.5384 117.5,53.5 Z"/></g>
<g><path style="opacity:1" fill="#797979" d="M 149.5,21.5 C 149.833,21.5 150.167,21.5 150.5,21.5C 150.833,21.5 151.167,21.5 151.5,21.5C 155.796,23.315 159.796,25.6483 163.5,28.5C 161.364,29.4026 159.364,30.5693 157.5,32C 161.007,34.254 164.673,36.254 168.5,38C 171.913,38.4711 174.913,37.6378 177.5,35.5C 180.241,35.7073 182.574,36.7073 184.5,38.5C 182.684,40.1366 180.684,41.6366 178.5,43C 180.315,43.7568 181.981,44.5902 183.5,45.5C 182.374,47.4525 180.708,48.9525 178.5,50C 185.769,51.8523 186.102,54.1856 179.5,57C 181.265,58.2978 183.099,59.4645 185,60.5C 191.316,57.6521 197.483,54.6521 203.5,51.5C 204.5,50.8333 205.5,50.1667 206.5,49.5C 209.331,50.0787 211.664,51.412 213.5,53.5C 211.9,54.6444 210.233,55.8111 208.5,57C 212.194,59.1782 215.861,61.3448 219.5,63.5C 218.177,65.6864 216.177,67.1864 213.5,68C 215.925,69.2126 218.259,70.3793 220.5,71.5C 218.481,72.9334 216.314,74.2668 214,75.5C 209.527,73.068 205.027,70.7347 200.5,68.5C 201.945,66.9373 203.611,65.604 205.5,64.5C 201.234,60.6376 196.901,60.6376 192.5,64.5C 194.824,65.6622 197.158,66.8289 199.5,68C 197.655,69.4229 195.655,70.5896 193.5,71.5C 194.945,73.0627 196.611,74.396 198.5,75.5C 196.954,76.684 195.287,77.684 193.5,78.5C 195.283,80.2316 197.283,81.7316 199.5,83C 194.519,85.1559 189.519,87.3225 184.5,89.5C 182.938,89.2671 181.605,88.6005 180.5,87.5C 177.297,75.6894 173.631,64.0228 169.5,52.5C 165.772,53.377 162.105,54.377 158.5,55.5C 158.5,54.8333 158.167,54.5 157.5,54.5C 157.5,53.8333 157.5,53.1667 157.5,52.5C 163.683,49.8363 163.016,47.8363 155.5,46.5C 155.5,46.1667 155.5,45.8333 155.5,45.5C 158.028,44.9886 160.528,44.3219 163,43.5C 167.916,46.2527 172.749,46.086 177.5,43C 173.198,38.5208 168.698,38.3542 164,42.5C 160.634,40.7302 157.134,39.3969 153.5,38.5C 153.029,36.4214 152.363,34.4214 151.5,32.5C 150.578,28.8881 149.911,25.2215 149.5,21.5 Z"/></g>
<g><path style="opacity:0.022" fill="#2e1c1d" d="M 44.5,38.5 C 44.8333,38.5 45.1667,38.5 45.5,38.5C 45.3284,39.4916 45.6618,40.1583 46.5,40.5C 46.5,41.1667 46.5,41.8333 46.5,42.5C 46.5,43.1667 46.5,43.8333 46.5,44.5C 45.1667,44.8333 45.1667,45.1667 46.5,45.5C 46.1583,46.3382 45.4916,46.6716 44.5,46.5C 43.1507,45.3559 42.8174,45.3559 43.5,46.5C 42.791,47.404 41.791,47.7373 40.5,47.5C 39.1507,46.3559 38.8174,46.3559 39.5,47.5C 39.1583,48.3382 38.4916,48.6716 37.5,48.5C 37.1961,47.8501 36.8627,47.1835 36.5,46.5C 39.6954,45.5483 42.6954,44.215 45.5,42.5C 44.7542,41.2638 44.4208,39.9305 44.5,38.5 Z"/></g>
<g><path style="opacity:1" fill="#878587" d="M 183.5,45.5 C 187.994,47.912 192.661,50.0787 197.5,52C 199.545,52.4901 201.545,52.3235 203.5,51.5C 197.483,54.6521 191.316,57.6521 185,60.5C 183.099,59.4645 181.265,58.2978 179.5,57C 186.102,54.1856 185.769,51.8523 178.5,50C 180.708,48.9525 182.374,47.4525 183.5,45.5 Z"/></g>
<g><path style="opacity:1" fill="#565556" d="M 155.5,46.5 C 163.016,47.8363 163.683,49.8363 157.5,52.5C 156.833,50.5 156.167,48.5 155.5,46.5 Z"/></g>
<g><path style="opacity:1" fill="#241113" d="M 100.5,45.5 C 101.376,45.3691 102.043,45.7025 102.5,46.5C 103.599,49.2956 104.599,52.1289 105.5,55C 104.944,56.0111 104.278,56.8444 103.5,57.5C 101.784,57.6287 100.117,57.962 98.5,58.5C 88.9196,61.4555 79.2529,64.1222 69.5,66.5C 67.706,62.8776 66.3727,58.8776 65.5,54.5C 73.0396,52.0994 80.7063,50.0994 88.5,48.5C 92.3269,46.8766 96.3269,45.8766 100.5,45.5 Z"/></g>
<g><path style="opacity:0.016" fill="#271527" d="M 36.5,51.5 C 36.5,51.8333 36.5,52.1667 36.5,52.5C 36.2627,53.791 36.596,54.791 37.5,55.5C 37.5,55.8333 37.5,56.1667 37.5,56.5C 37.5,57.1667 37.5,57.8333 37.5,58.5C 37.5,59.1667 37.5,59.8333 37.5,60.5C 35.5789,57.1441 34.7456,53.4775 35,49.5C 35.2784,50.4158 35.7784,51.0825 36.5,51.5 Z"/></g>
<g><path style="opacity:1" fill="#4e3d3e" d="M 133.5,62.5 C 129.516,63.4876 125.516,64.4876 121.5,65.5C 120.132,61.7024 119.132,57.7024 118.5,53.5C 122.32,51.3267 126.32,50.6601 130.5,51.5C 131.631,55.1648 132.631,58.8315 133.5,62.5 Z"/></g>
<g><path style="opacity:0.896" fill="#989598" d="M 213.5,53.5 C 221.327,56.914 228.993,60.5807 236.5,64.5C 233.87,65.4278 231.204,66.4278 228.5,67.5C 225.632,65.8999 222.632,64.5665 219.5,63.5C 215.861,61.3448 212.194,59.1782 208.5,57C 210.233,55.8111 211.9,54.6444 213.5,53.5 Z"/></g>
<g><path style="opacity:1" fill="#231113" d="M 180.5,87.5 C 180.99,90.6553 181.656,93.6553 182.5,96.5C 183.167,99.1667 183.833,101.833 184.5,104.5C 186.023,107.635 186.69,110.968 186.5,114.5C 182.833,115.167 179.167,115.833 175.5,116.5C 175.517,118.565 175.85,120.565 176.5,122.5C 177.038,124.117 177.371,125.784 177.5,127.5C 176.9,128.9 175.9,129.9 174.5,130.5C 171.539,131.323 168.539,131.99 165.5,132.5C 165.784,130.585 165.451,128.919 164.5,127.5C 164.007,125.194 163.674,122.861 163.5,120.5C 164.791,120.737 165.791,120.404 166.5,119.5C 168.993,118.226 171.659,117.56 174.5,117.5C 172.416,105.824 169.416,94.4906 165.5,83.5C 164.921,78.1743 163.587,73.1743 161.5,68.5C 160.349,64.2277 159.349,59.8943 158.5,55.5C 162.105,54.377 165.772,53.377 169.5,52.5C 173.631,64.0228 177.297,75.6894 180.5,87.5 Z"/></g>
<g><path style="opacity:1" fill="#5d555b" d="M 157.5,54.5 C 158.167,54.5 158.5,54.8333 158.5,55.5C 159.349,59.8943 160.349,64.2277 161.5,68.5C 157.86,68.4714 154.527,69.4714 151.5,71.5C 150.571,72.6888 150.238,74.0222 150.5,75.5C 149.833,74.1667 149.167,72.8333 148.5,71.5C 148.154,68.1149 147.488,64.7816 146.5,61.5C 146.685,60.4163 147.018,59.4163 147.5,58.5C 150.48,57.7345 153.48,56.9011 156.5,56C 157.056,55.6174 157.389,55.1174 157.5,54.5 Z"/></g>
<g><path style="opacity:1" fill="#4e3c3e" d="M 143.5,51.5 C 144.397,54.1643 145.73,56.4976 147.5,58.5C 147.018,59.4163 146.685,60.4163 146.5,61.5C 147.488,64.7816 148.154,68.1149 148.5,71.5C 144.494,72.0913 140.827,73.4247 137.5,75.5C 136.5,75.5 135.5,75.5 134.5,75.5C 135.391,74.7387 136.058,73.7387 136.5,72.5C 135.512,69.2184 134.846,65.8851 134.5,62.5C 137.699,61.1009 141.032,60.1009 144.5,59.5C 144.167,56.8333 143.833,54.1667 143.5,51.5 Z"/></g>
<g><path style="opacity:1" fill="#898688" d="M 103.5,57.5 C 104.609,57.5569 105.609,57.8902 106.5,58.5C 106.5,59.8333 106.5,61.1667 106.5,62.5C 104.49,65.0275 101.823,66.8608 98.5,68C 100.063,68.7589 101.063,69.9256 101.5,71.5C 99.901,71.2322 98.5676,71.5655 97.5,72.5C 96.8333,72.5 96.5,72.8333 96.5,73.5C 94.6883,73.2287 93.0217,72.562 91.5,71.5C 93.3359,70.081 95.3359,68.9143 97.5,68C 96.3349,66.9164 95.0016,66.0831 93.5,65.5C 92.6143,64.675 92.281,63.675 92.5,62.5C 96.4183,62.9461 98.4183,61.6127 98.5,58.5C 100.117,57.962 101.784,57.6287 103.5,57.5 Z"/></g>
<g><path style="opacity:1" fill="#787878" d="M 98.5,58.5 C 98.4183,61.6127 96.4183,62.9461 92.5,62.5C 92.281,63.675 92.6143,64.675 93.5,65.5C 95.0016,66.0831 96.3349,66.9164 97.5,68C 95.3359,68.9143 93.3359,70.081 91.5,71.5C 93.0217,72.562 94.6883,73.2287 96.5,73.5C 95.7075,75.8853 94.3742,77.8853 92.5,79.5C 89.538,80.0609 86.7047,81.0609 84,82.5C 81.5351,81.3487 79.0351,80.3487 76.5,79.5C 72.0824,74.4805 67.4157,74.3139 62.5,79C 64.5,80.3333 66.5,81.6667 68.5,83C 66.5932,84.122 64.5932,84.9553 62.5,85.5C 60.597,85.2041 58.9303,84.5375 57.5,83.5C 57.3893,82.8826 57.056,82.3826 56.5,82C 58.1667,81 59.8333,80 61.5,79C 56.809,76.9921 52.4757,74.4921 48.5,71.5C 49.4363,70.0256 50.7697,69.0256 52.5,68.5C 53.1667,68.5 53.5,68.1667 53.5,67.5C 53.8333,67.5 54.1667,67.5 54.5,67.5C 55.1217,68.6266 55.955,69.6266 57,70.5C 61.2395,69.0958 65.4061,67.7625 69.5,66.5C 79.2529,64.1222 88.9196,61.4555 98.5,58.5 Z"/></g>
<g><path style="opacity:1" fill="#666865" d="M 106.5,62.5 C 107.924,64.5145 108.59,66.8478 108.5,69.5C 106.035,69.767 103.701,70.4336 101.5,71.5C 101.063,69.9256 100.063,68.7589 98.5,68C 101.823,66.8608 104.49,65.0275 106.5,62.5 Z"/></g>
<g><path style="opacity:0.952" fill="#878587" d="M 219.5,63.5 C 222.632,64.5665 225.632,65.8999 228.5,67.5C 231.204,66.4278 233.87,65.4278 236.5,64.5C 243.511,67.3388 250.178,70.6721 256.5,74.5C 254.546,76.2696 252.213,77.6029 249.5,78.5C 247.78,77.1359 245.78,76.1359 243.5,75.5C 239.455,78.5914 235.288,78.9247 231,76.5C 230.5,76.1667 230,75.8333 229.5,75.5C 231.5,74.1667 233.5,72.8333 235.5,71.5C 231.094,67.6352 226.76,67.6352 222.5,71.5C 221.833,71.5 221.167,71.5 220.5,71.5C 218.259,70.3793 215.925,69.2126 213.5,68C 216.177,67.1864 218.177,65.6864 219.5,63.5 Z"/></g>
<g><path style="opacity:1" fill="#231113" d="M 133.5,62.5 C 133.833,62.5 134.167,62.5 134.5,62.5C 134.846,65.8851 135.512,69.2184 136.5,72.5C 136.058,73.7387 135.391,74.7387 134.5,75.5C 131.198,76.2937 127.865,76.9604 124.5,77.5C 123.373,73.8605 122.373,70.1939 121.5,66.5C 121.5,66.1667 121.5,65.8333 121.5,65.5C 125.516,64.4876 129.516,63.4876 133.5,62.5 Z"/></g>
<g><path style="opacity:1" fill="#5d3332" d="M 121.5,66.5 C 122.373,70.1939 123.373,73.8605 124.5,77.5C 124.5,77.8333 124.5,78.1667 124.5,78.5C 120.098,78.9264 116.098,80.2597 112.5,82.5C 111.167,82.5 109.833,82.5 108.5,82.5C 109.209,81.596 110.209,81.2627 111.5,81.5C 111.044,77.4162 110.544,73.4162 110,69.5C 113.481,67.433 117.314,66.433 121.5,66.5 Z"/></g>
<g><path style="opacity:1" fill="#636363" d="M 220.5,71.5 C 221.167,71.5 221.833,71.5 222.5,71.5C 224.319,72.5845 225.985,73.9178 227.5,75.5C 225.64,76.3249 223.974,77.3249 222.5,78.5C 219.753,79.956 216.92,81.2893 214,82.5C 209.403,78.7075 204.903,78.7075 200.5,82.5C 202.901,83.3576 204.901,84.691 206.5,86.5C 201.893,88.4679 197.559,90.8013 193.5,93.5C 190.314,92.4031 187.314,91.0697 184.5,89.5C 189.519,87.3225 194.519,85.1559 199.5,83C 197.283,81.7316 195.283,80.2316 193.5,78.5C 195.287,77.684 196.954,76.684 198.5,75.5C 196.611,74.396 194.945,73.0627 193.5,71.5C 195.655,70.5896 197.655,69.4229 199.5,68C 197.158,66.8289 194.824,65.6622 192.5,64.5C 196.901,60.6376 201.234,60.6376 205.5,64.5C 203.611,65.604 201.945,66.9373 200.5,68.5C 205.027,70.7347 209.527,73.068 214,75.5C 216.314,74.2668 218.481,72.9334 220.5,71.5 Z"/></g>
<g><path style="opacity:1" fill="#7b7b7b" d="M 249.5,78.5 C 245.431,81.8681 240.764,84.2014 235.5,85.5C 230.393,84.4488 226.059,82.1154 222.5,78.5C 223.974,77.3249 225.64,76.3249 227.5,75.5C 225.985,73.9178 224.319,72.5845 222.5,71.5C 226.76,67.6352 231.094,67.6352 235.5,71.5C 233.5,72.8333 231.5,74.1667 229.5,75.5C 230,75.8333 230.5,76.1667 231,76.5C 235.288,78.9247 239.455,78.5914 243.5,75.5C 245.78,76.1359 247.78,77.1359 249.5,78.5 Z"/></g>
<g><path style="opacity:0.958" fill="#686b68" d="M 48.5,71.5 C 52.4757,74.4921 56.809,76.9921 61.5,79C 59.8333,80 58.1667,81 56.5,82C 57.056,82.3826 57.3893,82.8826 57.5,83.5C 52.6728,80.9213 47.6728,78.588 42.5,76.5C 41.7025,76.0431 41.3691,75.3764 41.5,74.5C 43.649,73.2638 45.9823,72.2638 48.5,71.5 Z"/></g>
<g><path style="opacity:1" fill="#312323" d="M 117.5,53.5 C 117.833,53.5 118.167,53.5 118.5,53.5C 119.132,57.7024 120.132,61.7024 121.5,65.5C 121.5,65.8333 121.5,66.1667 121.5,66.5C 117.314,66.433 113.481,67.433 110,69.5C 110.544,73.4162 111.044,77.4162 111.5,81.5C 110.209,81.2627 109.209,81.596 108.5,82.5C 105.833,83.1667 103.167,83.8333 100.5,84.5C 100.547,87.9686 101.213,91.302 102.5,94.5C 102.5,95.5 102.5,96.5 102.5,97.5C 98.0977,97.8434 94.4311,99.5101 91.5,102.5C 92.519,105.86 93.519,109.193 94.5,112.5C 94.5,112.833 94.5,113.167 94.5,113.5C 90.3837,113.541 86.3837,114.207 82.5,115.5C 82.4782,119.436 83.4782,123.103 85.5,126.5C 86.6888,127.429 88.0222,127.762 89.5,127.5C 88.791,128.404 87.791,128.737 86.5,128.5C 86.5,129.833 86.5,131.167 86.5,132.5C 85.596,131.791 85.2627,130.791 85.5,129.5C 81.9019,129.607 78.4019,130.274 75,131.5C 74.0979,131.257 73.2646,130.923 72.5,130.5C 71.9421,127.656 71.2755,124.822 70.5,122C 70.8333,121.167 71.1667,120.333 71.5,119.5C 74.8548,118.484 78.1881,117.484 81.5,116.5C 80.8333,112.167 80.1667,107.833 79.5,103.5C 79.8333,103.5 80.1667,103.5 80.5,103.5C 84.0419,102.46 87.3752,101.126 90.5,99.5C 89.2443,95.913 88.7443,92.2463 89,88.5C 92.3338,86.9578 95.8338,85.9578 99.5,85.5C 99.5,84.5 99.5,83.5 99.5,82.5C 97.9767,79.3652 97.31,76.0318 97.5,72.5C 98.5676,71.5655 99.901,71.2322 101.5,71.5C 103.701,70.4336 106.035,69.767 108.5,69.5C 108.59,66.8478 107.924,64.5145 106.5,62.5C 106.5,61.1667 106.5,59.8333 106.5,58.5C 109.388,55.5002 113.055,53.8335 117.5,53.5 Z"/></g>
<g><path style="opacity:1" fill="#241214" d="M 148.5,71.5 C 149.167,72.8333 149.833,74.1667 150.5,75.5C 150.899,79.1165 151.899,82.4498 153.5,85.5C 156.5,96.8319 159.5,108.165 162.5,119.5C 162.389,120.117 162.056,120.617 161.5,121C 158.348,121.395 155.348,122.228 152.5,123.5C 151.624,123.631 150.957,123.298 150.5,122.5C 149.365,119.418 148.365,116.418 147.5,113.5C 146.279,107.597 144.612,101.931 142.5,96.5C 142.279,93.9327 141.612,91.5994 140.5,89.5C 140.371,87.7839 140.038,86.1172 139.5,84.5C 138.583,81.5827 137.916,78.5827 137.5,75.5C 140.827,73.4247 144.494,72.0913 148.5,71.5 Z"/></g>
<g><path style="opacity:1" fill="#6f666f" d="M 161.5,68.5 C 163.587,73.1743 164.921,78.1743 165.5,83.5C 164.842,82.6016 164.176,81.6016 163.5,80.5C 160.839,81.3323 158.172,82.1656 155.5,83C 154.244,83.4169 153.577,84.2502 153.5,85.5C 151.899,82.4498 150.899,79.1165 150.5,75.5C 150.238,74.0222 150.571,72.6888 151.5,71.5C 154.527,69.4714 157.86,68.4714 161.5,68.5 Z"/></g>
<g><path style="opacity:0.985" fill="#616161" d="M 41.5,74.5 C 41.3691,75.3764 41.7025,76.0431 42.5,76.5C 47.6728,78.588 52.6728,80.9213 57.5,83.5C 58.9303,84.5375 60.597,85.2041 62.5,85.5C 65.0078,87.9236 68.0078,89.5903 71.5,90.5C 77.4347,94.3003 83.768,97.3003 90.5,99.5C 87.3752,101.126 84.0419,102.46 80.5,103.5C 77.2266,101.093 73.7266,98.7594 70,96.5C 69.502,99.4816 69.3354,102.482 69.5,105.5C 67.2487,104.305 64.9154,103.305 62.5,102.5C 62.8134,105.247 62.48,107.914 61.5,110.5C 56.6386,108.82 52.1386,106.486 48,103.5C 47.502,106.482 47.3354,109.482 47.5,112.5C 45.5395,110.688 43.2061,109.688 40.5,109.5C 40.5,112.167 40.5,114.833 40.5,117.5C 37.9469,116.195 35.2802,115.195 32.5,114.5C 32.5,111.5 32.5,108.5 32.5,105.5C 34.9279,106.212 37.2612,107.212 39.5,108.5C 40.7412,105.463 40.7412,102.463 39.5,99.5C 40.6517,94.0154 40.8184,88.3487 40,82.5C 37.6857,81.2668 35.5191,79.9334 33.5,78.5C 35.9384,76.7328 38.605,75.3994 41.5,74.5 Z"/></g>
<g><path style="opacity:1" fill="#696b69" d="M 76.5,79.5 C 73.91,80.1283 71.5766,81.295 69.5,83C 72.0691,83.8984 74.4024,85.065 76.5,86.5C 74.1737,87.1447 72.507,88.478 71.5,90.5C 68.0078,89.5903 65.0078,87.9236 62.5,85.5C 64.5932,84.9553 66.5932,84.122 68.5,83C 66.5,81.6667 64.5,80.3333 62.5,79C 67.4157,74.3139 72.0824,74.4805 76.5,79.5 Z"/></g>
<g><path style="opacity:1" fill="#595758" d="M 97.5,72.5 C 97.31,76.0318 97.9767,79.3652 99.5,82.5C 98.391,82.4431 97.391,82.1098 96.5,81.5C 95.1667,80.8333 93.8333,80.1667 92.5,79.5C 94.3742,77.8853 95.7075,75.8853 96.5,73.5C 96.5,72.8333 96.8333,72.5 97.5,72.5 Z"/></g>
<g><path style="opacity:1" fill="#737273" d="M 222.5,78.5 C 226.059,82.1154 230.393,84.4488 235.5,85.5C 228.697,89.4029 221.697,93.0696 214.5,96.5C 211.759,96.2927 209.426,95.2927 207.5,93.5C 209.273,92.1077 211.273,90.941 213.5,90C 211.423,88.295 209.09,87.1283 206.5,86.5C 204.901,84.691 202.901,83.3576 200.5,82.5C 204.903,78.7075 209.403,78.7075 214,82.5C 216.92,81.2893 219.753,79.956 222.5,78.5 Z"/></g>
<g><path style="opacity:0.944" fill="#373637" d="M 264.5,78.5 C 265.497,98.9933 265.831,119.66 265.5,140.5C 262.657,141.172 260.157,142.505 258,144.5C 257.502,141.518 257.335,138.518 257.5,135.5C 257.5,117.833 257.5,100.167 257.5,82.5C 260.032,81.4043 262.365,80.0709 264.5,78.5 Z"/></g>
<g><path style="opacity:1" fill="#8b898b" d="M 76.5,79.5 C 79.0351,80.3487 81.5351,81.3487 84,82.5C 86.7047,81.0609 89.538,80.0609 92.5,79.5C 93.8333,80.1667 95.1667,80.8333 96.5,81.5C 95.4096,83.6491 93.5762,84.9825 91,85.5C 85.9885,82.8661 81.1551,83.1994 76.5,86.5C 74.4024,85.065 72.0691,83.8984 69.5,83C 71.5766,81.295 73.91,80.1283 76.5,79.5 Z"/></g>
<g><path style="opacity:1" fill="#241112" d="M 124.5,78.5 C 125.512,82.5158 126.512,86.5158 127.5,90.5C 126.209,90.2627 125.209,90.596 124.5,91.5C 123.167,91.8333 121.833,92.1667 120.5,92.5C 118.784,92.6287 117.117,92.962 115.5,93.5C 114.615,89.7123 113.615,86.0456 112.5,82.5C 116.098,80.2597 120.098,78.9264 124.5,78.5 Z"/></g>
<g><path style="opacity:1" fill="#5b5a5a" d="M 134.5,75.5 C 135.5,75.5 136.5,75.5 137.5,75.5C 137.916,78.5827 138.583,81.5827 139.5,84.5C 135.003,85.2435 131.336,87.2435 128.5,90.5C 127.432,91.4345 126.099,91.7678 124.5,91.5C 125.209,90.596 126.209,90.2627 127.5,90.5C 126.512,86.5158 125.512,82.5158 124.5,78.5C 124.5,78.1667 124.5,77.8333 124.5,77.5C 127.865,76.9604 131.198,76.2937 134.5,75.5 Z"/></g>
<g><path style="opacity:1" fill="#857a83" d="M 165.5,83.5 C 169.416,94.4906 172.416,105.824 174.5,117.5C 171.659,117.56 168.993,118.226 166.5,119.5C 165.167,119.5 163.833,119.5 162.5,119.5C 159.5,108.165 156.5,96.8319 153.5,85.5C 153.577,84.2502 154.244,83.4169 155.5,83C 158.172,82.1656 160.839,81.3323 163.5,80.5C 164.176,81.6016 164.842,82.6016 165.5,83.5 Z"/></g>
<g><path style="opacity:1" fill="#555455" d="M 256.5,74.5 C 259.45,75.3084 262.117,76.6418 264.5,78.5C 262.365,80.0709 260.032,81.4043 257.5,82.5C 256.681,85.3054 256.181,88.3054 256,91.5C 254.333,92.5 252.667,93.5 251,94.5C 250.667,97.5 250.333,100.5 250,103.5C 247.722,104.719 245.555,106.052 243.5,107.5C 240.672,108.655 238.005,109.989 235.5,111.5C 233.243,111.962 231.243,112.962 229.5,114.5C 228.832,111.694 228.166,109.028 227.5,106.5C 229.731,104.799 232.231,103.466 235,102.5C 235.667,99.5 235.667,96.5 235,93.5C 228.841,95.9973 223.008,99.164 217.5,103C 213.57,104.138 210.236,103.305 207.5,100.5C 209.765,98.8726 212.099,97.5392 214.5,96.5C 221.697,93.0696 228.697,89.4029 235.5,85.5C 240.764,84.2014 245.431,81.8681 249.5,78.5C 252.213,77.6029 254.546,76.2696 256.5,74.5 Z"/></g>
<g><path style="opacity:1" fill="#704442" d="M 108.5,82.5 C 109.833,82.5 111.167,82.5 112.5,82.5C 113.615,86.0456 114.615,89.7123 115.5,93.5C 115.5,93.8333 115.5,94.1667 115.5,94.5C 111.751,94.7506 108.085,95.4172 104.5,96.5C 103.833,95.8333 103.167,95.1667 102.5,94.5C 101.213,91.302 100.547,87.9686 100.5,84.5C 103.167,83.8333 105.833,83.1667 108.5,82.5 Z"/></g>
<g><path style="opacity:1" fill="#7b787b" d="M 62.5,102.5 C 58.1388,99.6527 53.4722,97.3194 48.5,95.5C 47.1667,92.5 47.1667,89.5 48.5,86.5C 53.1852,88.4643 57.6852,90.7976 62,93.5C 62.498,96.4816 62.6646,99.4816 62.5,102.5 Z"/></g>
<g><path style="opacity:1" fill="#767476" d="M 96.5,81.5 C 97.391,82.1098 98.391,82.4431 99.5,82.5C 99.5,83.5 99.5,84.5 99.5,85.5C 95.8338,85.9578 92.3338,86.9578 89,88.5C 88.7443,92.2463 89.2443,95.913 90.5,99.5C 83.768,97.3003 77.4347,94.3003 71.5,90.5C 72.507,88.478 74.1737,87.1447 76.5,86.5C 81.1551,83.1994 85.9885,82.8661 91,85.5C 93.5762,84.9825 95.4096,83.6491 96.5,81.5 Z"/></g>
<g><path style="opacity:1" fill="#585758" d="M 206.5,86.5 C 209.09,87.1283 211.423,88.295 213.5,90C 211.273,90.941 209.273,92.1077 207.5,93.5C 205.058,95.0525 202.391,96.0525 199.5,96.5C 196.898,96.5328 194.898,95.5328 193.5,93.5C 197.559,90.8013 201.893,88.4679 206.5,86.5 Z"/></g>
<g><path style="opacity:0.93" fill="#535453" d="M 33.5,78.5 C 35.5191,79.9334 37.6857,81.2668 40,82.5C 40.8184,88.3487 40.6517,94.0154 39.5,99.5C 37.2872,98.2271 34.9538,97.2271 32.5,96.5C 32.1771,90.31 32.5104,84.31 33.5,78.5 Z"/></g>
<g><path style="opacity:1" fill="#5f5e5f" d="M 180.5,87.5 C 181.605,88.6005 182.938,89.2671 184.5,89.5C 187.314,91.0697 190.314,92.4031 193.5,93.5C 194.898,95.5328 196.898,96.5328 199.5,96.5C 202.391,96.0525 205.058,95.0525 207.5,93.5C 209.426,95.2927 211.759,96.2927 214.5,96.5C 212.099,97.5392 209.765,98.8726 207.5,100.5C 210.236,103.305 213.57,104.138 217.5,103C 223.008,99.164 228.841,95.9973 235,93.5C 235.667,96.5 235.667,99.5 235,102.5C 232.231,103.466 229.731,104.799 227.5,106.5C 223.196,108.494 218.863,110.494 214.5,112.5C 213.682,109.893 213.182,107.226 213,104.5C 211.333,105.5 209.667,106.5 208,107.5C 207.821,110.553 207.321,113.553 206.5,116.5C 199.559,120.363 192.559,124.029 185.5,127.5C 185.5,124.5 185.5,121.5 185.5,118.5C 188.328,117.345 190.995,116.011 193.5,114.5C 197.879,112.31 202.213,110.144 206.5,108C 198.633,104.274 190.967,100.108 183.5,95.5C 182.893,95.6236 182.56,95.9569 182.5,96.5C 181.656,93.6553 180.99,90.6553 180.5,87.5 Z"/></g>
<g><path style="opacity:1" fill="#969396" d="M 128.5,90.5 C 130.593,91.0447 132.593,91.878 134.5,93C 130.039,95.0643 125.706,97.3977 121.5,100C 120.072,100.579 118.738,100.412 117.5,99.5C 116.89,98.609 116.557,97.609 116.5,96.5C 117.37,94.7263 118.703,93.393 120.5,92.5C 121.833,92.1667 123.167,91.8333 124.5,91.5C 126.099,91.7678 127.432,91.4345 128.5,90.5 Z"/></g>
<g><path style="opacity:1" fill="#5f5e5f" d="M 140.5,89.5 C 141.612,91.5994 142.279,93.9327 142.5,96.5C 134.703,95.1742 134.036,92.8409 140.5,89.5 Z"/></g>
<g><path style="opacity:1" fill="#504a4c" d="M 120.5,92.5 C 118.703,93.393 117.37,94.7263 116.5,96.5C 115.662,96.1583 115.328,95.4916 115.5,94.5C 115.5,94.1667 115.5,93.8333 115.5,93.5C 117.117,92.962 118.784,92.6287 120.5,92.5 Z"/></g>
<g><path style="opacity:1" fill="#7b7a7b" d="M 139.5,84.5 C 140.038,86.1172 140.371,87.7839 140.5,89.5C 134.036,92.8409 134.703,95.1742 142.5,96.5C 144.612,101.931 146.279,107.597 147.5,113.5C 146.394,116.077 144.394,117.744 141.5,118.5C 139.278,117.312 136.945,116.312 134.5,115.5C 130.734,118.352 126.9,118.685 123,116.5C 121.743,116.15 121.409,115.483 122,114.5C 123.41,113.213 124.91,112.046 126.5,111C 123.367,110.14 120.7,108.64 118.5,106.5C 118.552,104.097 118.219,101.764 117.5,99.5C 118.738,100.412 120.072,100.579 121.5,100C 125.706,97.3977 130.039,95.0643 134.5,93C 132.593,91.878 130.593,91.0447 128.5,90.5C 131.336,87.2435 135.003,85.2435 139.5,84.5 Z"/></g>
<g><path style="opacity:0.926" fill="#7b787b" d="M 32.5,96.5 C 34.9538,97.2271 37.2872,98.2271 39.5,99.5C 40.7412,102.463 40.7412,105.463 39.5,108.5C 37.2612,107.212 34.9279,106.212 32.5,105.5C 32.5,102.5 32.5,99.5 32.5,96.5 Z"/></g>
<g><path style="opacity:1" fill="#7b787b" d="M 80.5,103.5 C 80.1667,103.5 79.8333,103.5 79.5,103.5C 78.5552,105.704 78.3885,108.038 79,110.5C 75.6009,109.218 72.4342,107.551 69.5,105.5C 69.3354,102.482 69.502,99.4816 70,96.5C 73.7266,98.7594 77.2266,101.093 80.5,103.5 Z"/></g>
<g><path style="opacity:1" fill="#928f92" d="M 193.5,114.5 C 187.155,114.112 186.155,111.779 190.5,107.5C 188.929,105.585 186.929,104.585 184.5,104.5C 183.833,101.833 183.167,99.1667 182.5,96.5C 182.56,95.9569 182.893,95.6236 183.5,95.5C 190.967,100.108 198.633,104.274 206.5,108C 202.213,110.144 197.879,112.31 193.5,114.5 Z"/></g>
<g><path style="opacity:1" fill="#5f3332" d="M 102.5,94.5 C 103.167,95.1667 103.833,95.8333 104.5,96.5C 105.08,100.81 105.414,105.143 105.5,109.5C 101.761,110.303 98.0946,111.303 94.5,112.5C 93.519,109.193 92.519,105.86 91.5,102.5C 94.4311,99.5101 98.0977,97.8434 102.5,97.5C 102.5,96.5 102.5,95.5 102.5,94.5 Z"/></g>
<g><path style="opacity:1" fill="#504f50" d="M 62.5,102.5 C 64.9154,103.305 67.2487,104.305 69.5,105.5C 69.8174,108.572 69.4841,111.572 68.5,114.5C 66.6675,113.752 65.0009,112.752 63.5,111.5C 62.52,114.086 62.1866,116.753 62.5,119.5C 60.0202,118.758 57.6869,117.758 55.5,116.5C 52.8987,115.199 50.232,113.866 47.5,112.5C 47.3354,109.482 47.502,106.482 48,103.5C 52.1386,106.486 56.6386,108.82 61.5,110.5C 62.48,107.914 62.8134,105.247 62.5,102.5 Z"/></g>
<g><path style="opacity:1" fill="#646364" d="M 79.5,103.5 C 80.1667,107.833 80.8333,112.167 81.5,116.5C 78.1881,117.484 74.8548,118.484 71.5,119.5C 71.1667,120.333 70.8333,121.167 70.5,122C 71.2755,124.822 71.9421,127.656 72.5,130.5C 72.5,131.167 72.5,131.833 72.5,132.5C 71.5,132.5 70.5,132.5 69.5,132.5C 69.8204,129.102 69.487,125.768 68.5,122.5C 66.5504,121.628 64.5504,120.961 62.5,120.5C 62.5,120.167 62.5,119.833 62.5,119.5C 62.1866,116.753 62.52,114.086 63.5,111.5C 65.0009,112.752 66.6675,113.752 68.5,114.5C 69.4841,111.572 69.8174,108.572 69.5,105.5C 72.4342,107.551 75.6009,109.218 79,110.5C 78.3885,108.038 78.5552,105.704 79.5,103.5 Z"/></g>
<g><path style="opacity:1" fill="#3d3d3d" d="M 243.5,107.5 C 243.829,113.537 243.496,119.537 242.5,125.5C 240.358,126.601 238.192,127.601 236,128.5C 235.502,131.482 235.335,134.482 235.5,137.5C 233.355,138.989 231.022,139.989 228.5,140.5C 228.664,137.813 228.497,135.146 228,132.5C 226.266,134.451 224.099,135.451 221.5,135.5C 221.5,132.833 221.5,130.167 221.5,127.5C 218.626,128.063 215.96,129.063 213.5,130.5C 213.336,127.813 213.503,125.146 214,122.5C 216.333,121.167 218.667,119.833 221,118.5C 221.182,121.226 221.682,123.893 222.5,126.5C 226.221,123.973 230.221,121.973 234.5,120.5C 235.484,117.572 235.817,114.572 235.5,111.5C 238.005,109.989 240.672,108.655 243.5,107.5 Z"/></g>
<g><path style="opacity:1" fill="#494849" d="M 257.5,82.5 C 257.5,100.167 257.5,117.833 257.5,135.5C 255.11,136.446 252.944,137.779 251,139.5C 250.821,136.447 250.321,133.447 249.5,130.5C 245.086,133.374 240.419,135.707 235.5,137.5C 235.335,134.482 235.502,131.482 236,128.5C 238.192,127.601 240.358,126.601 242.5,125.5C 243.496,119.537 243.829,113.537 243.5,107.5C 245.555,106.052 247.722,104.719 250,103.5C 250.333,100.5 250.667,97.5 251,94.5C 252.667,93.5 254.333,92.5 256,91.5C 256.181,88.3054 256.681,85.3054 257.5,82.5 Z"/></g>
<g><path style="opacity:1" fill="#505050" d="M 47.5,112.5 C 47.6646,115.518 47.498,118.518 47,121.5C 45.0065,120.086 42.8398,119.086 40.5,118.5C 40.5,118.167 40.5,117.833 40.5,117.5C 40.5,114.833 40.5,112.167 40.5,109.5C 43.2061,109.688 45.5395,110.688 47.5,112.5 Z"/></g>
<g><path style="opacity:1" fill="#636363" d="M 118.5,106.5 C 120.7,108.64 123.367,110.14 126.5,111C 124.91,112.046 123.41,113.213 122,114.5C 121.409,115.483 121.743,116.15 123,116.5C 126.9,118.685 130.734,118.352 134.5,115.5C 136.945,116.312 139.278,117.312 141.5,118.5C 139.681,119.584 138.015,120.918 136.5,122.5C 139.5,124.333 142.5,126.167 145.5,128C 149.207,128.996 152.541,128.33 155.5,126C 154.429,125.148 153.429,124.315 152.5,123.5C 155.348,122.228 158.348,121.395 161.5,121C 162.056,120.617 162.389,120.117 162.5,119.5C 163.833,119.5 165.167,119.5 166.5,119.5C 165.791,120.404 164.791,120.737 163.5,120.5C 163.674,122.861 164.007,125.194 164.5,127.5C 162.26,129.966 159.593,131.966 156.5,133.5C 153.964,134.349 151.464,135.349 149,136.5C 147.103,134.984 144.936,134.317 142.5,134.5C 142.5,142.833 142.5,151.167 142.5,159.5C 141.834,162.028 141.168,164.694 140.5,167.5C 138.677,166.253 136.677,165.586 134.5,165.5C 135.01,168.388 134.344,170.721 132.5,172.5C 130.833,171.833 129.167,171.167 127.5,170.5C 125.491,168.935 123.157,167.935 120.5,167.5C 120.5,167.167 120.5,166.833 120.5,166.5C 120.187,163.753 120.52,161.086 121.5,158.5C 123.173,160.086 125.173,160.753 127.5,160.5C 127.5,154.833 127.5,149.167 127.5,143.5C 129.781,144.608 131.948,145.942 134,147.5C 134.179,144.447 134.679,141.447 135.5,138.5C 137.001,139.752 138.668,140.752 140.5,141.5C 141.833,138.5 141.833,135.5 140.5,132.5C 130.267,127.216 119.934,122.216 109.5,117.5C 108.087,114.781 107.42,111.781 107.5,108.5C 111.233,108.13 114.899,107.463 118.5,106.5 Z"/></g>
<g><path style="opacity:1" fill="#251314" d="M 115.5,94.5 C 115.328,95.4916 115.662,96.1583 116.5,96.5C 116.557,97.609 116.89,98.609 117.5,99.5C 118.219,101.764 118.552,104.097 118.5,106.5C 114.899,107.463 111.233,108.13 107.5,108.5C 107.42,111.781 108.087,114.781 109.5,117.5C 109.784,119.415 109.451,121.081 108.5,122.5C 105.123,122.959 101.789,123.626 98.5,124.5C 99.3764,129.132 100.043,133.799 100.5,138.5C 96.7423,138.848 93.0756,139.515 89.5,140.5C 87.9028,138.152 86.9028,135.486 86.5,132.5C 86.5,131.167 86.5,129.833 86.5,128.5C 87.791,128.737 88.791,128.404 89.5,127.5C 91.9925,126.226 94.6592,125.56 97.5,125.5C 96.9034,121.381 95.9034,117.381 94.5,113.5C 94.5,113.167 94.5,112.833 94.5,112.5C 98.0946,111.303 101.761,110.303 105.5,109.5C 105.414,105.143 105.08,100.81 104.5,96.5C 108.085,95.4172 111.751,94.7506 115.5,94.5 Z"/></g>
<g><path style="opacity:1" fill="#767575" d="M 184.5,104.5 C 186.929,104.585 188.929,105.585 190.5,107.5C 186.155,111.779 187.155,114.112 193.5,114.5C 190.995,116.011 188.328,117.345 185.5,118.5C 182.618,120.108 179.618,121.441 176.5,122.5C 175.85,120.565 175.517,118.565 175.5,116.5C 179.167,115.833 182.833,115.167 186.5,114.5C 186.69,110.968 186.023,107.635 184.5,104.5 Z"/></g>
<g><path style="opacity:1" fill="#704442" d="M 94.5,113.5 C 95.9034,117.381 96.9034,121.381 97.5,125.5C 94.6592,125.56 91.9925,126.226 89.5,127.5C 88.0222,127.762 86.6888,127.429 85.5,126.5C 83.4782,123.103 82.4782,119.436 82.5,115.5C 86.3837,114.207 90.3837,113.541 94.5,113.5 Z"/></g>
<g><path style="opacity:1" fill="#4d4c4d" d="M 227.5,106.5 C 228.166,109.028 228.832,111.694 229.5,114.5C 231.243,112.962 233.243,111.962 235.5,111.5C 235.817,114.572 235.484,117.572 234.5,120.5C 230.221,121.973 226.221,123.973 222.5,126.5C 221.682,123.893 221.182,121.226 221,118.5C 218.667,119.833 216.333,121.167 214,122.5C 213.503,125.146 213.336,127.813 213.5,130.5C 215.96,129.063 218.626,128.063 221.5,127.5C 221.5,130.167 221.5,132.833 221.5,135.5C 224.099,135.451 226.266,134.451 228,132.5C 228.497,135.146 228.664,137.813 228.5,140.5C 231.022,139.989 233.355,138.989 235.5,137.5C 235.829,143.537 235.496,149.537 234.5,155.5C 232.999,156.752 231.332,157.752 229.5,158.5C 228.833,155.833 228.167,153.167 227.5,150.5C 222.462,152.74 220.295,156.74 221,162.5C 219.22,163.639 217.386,164.639 215.5,165.5C 213.938,163.628 212.938,161.295 212.5,158.5C 210.677,159.747 208.677,160.414 206.5,160.5C 206.664,157.813 206.497,155.146 206,152.5C 204.352,153.717 202.519,154.55 200.5,155C 199.867,158.459 199.2,161.959 198.5,165.5C 196.925,166.456 195.258,167.123 193.5,167.5C 192.527,165.052 192.194,162.385 192.5,159.5C 192.665,156.482 192.498,153.482 192,150.5C 190.247,151.627 188.413,152.627 186.5,153.5C 185.502,144.859 185.169,136.192 185.5,127.5C 192.559,124.029 199.559,120.363 206.5,116.5C 207.321,113.553 207.821,110.553 208,107.5C 209.667,106.5 211.333,105.5 213,104.5C 213.182,107.226 213.682,109.893 214.5,112.5C 218.863,110.494 223.196,108.494 227.5,106.5 Z"/></g>
<g><path style="opacity:1" fill="#7b787b" d="M 55.5,116.5 C 57.6869,117.758 60.0202,118.758 62.5,119.5C 62.5,119.833 62.5,120.167 62.5,120.5C 62.5,123.167 62.5,125.833 62.5,128.5C 55.2472,127.346 52.9139,123.346 55.5,116.5 Z"/></g>
<g><path style="opacity:1" fill="#575657" d="M 147.5,113.5 C 148.365,116.418 149.365,119.418 150.5,122.5C 150.957,123.298 151.624,123.631 152.5,123.5C 153.429,124.315 154.429,125.148 155.5,126C 152.541,128.33 149.207,128.996 145.5,128C 142.5,126.167 139.5,124.333 136.5,122.5C 138.015,120.918 139.681,119.584 141.5,118.5C 144.394,117.744 146.394,116.077 147.5,113.5 Z"/></g>
<g><path style="opacity:1" fill="#494849" d="M 185.5,118.5 C 185.5,121.5 185.5,124.5 185.5,127.5C 183.219,128.207 181.052,129.207 179,130.5C 178.768,129.263 178.268,128.263 177.5,127.5C 177.371,125.784 177.038,124.117 176.5,122.5C 179.618,121.441 182.618,120.108 185.5,118.5 Z"/></g>
<g><path style="opacity:1" fill="#494849" d="M 62.5,120.5 C 64.5504,120.961 66.5504,121.628 68.5,122.5C 69.487,125.768 69.8204,129.102 69.5,132.5C 69.5,133.167 69.1667,133.5 68.5,133.5C 66.9811,131.386 64.9811,129.72 62.5,128.5C 62.5,125.833 62.5,123.167 62.5,120.5 Z"/></g>
<g><path style="opacity:1" fill="#626162" d="M 47.5,112.5 C 50.232,113.866 52.8987,115.199 55.5,116.5C 52.9139,123.346 55.2472,127.346 62.5,128.5C 64.9811,129.72 66.9811,131.386 68.5,133.5C 66.139,133.674 63.8056,134.007 61.5,134.5C 61.9111,138.221 62.5778,141.888 63.5,145.5C 63.6716,146.492 63.3382,147.158 62.5,147.5C 55.2332,143.53 47.8999,139.53 40.5,135.5C 40.5,129.833 40.5,124.167 40.5,118.5C 42.8398,119.086 45.0065,120.086 47,121.5C 47.498,118.518 47.6646,115.518 47.5,112.5 Z"/></g>
<g><path style="opacity:0.925" fill="#737173" d="M 32.5,114.5 C 35.2802,115.195 37.9469,116.195 40.5,117.5C 40.5,117.833 40.5,118.167 40.5,118.5C 40.5,124.167 40.5,129.833 40.5,135.5C 37.8333,134.5 35.1667,133.5 32.5,132.5C 32.5,126.5 32.5,120.5 32.5,114.5 Z"/></g>
<g><path style="opacity:1" fill="#6e6d6e" d="M 109.5,117.5 C 119.934,122.216 130.267,127.216 140.5,132.5C 141.833,135.5 141.833,138.5 140.5,141.5C 138.668,140.752 137.001,139.752 135.5,138.5C 134.679,141.447 134.179,144.447 134,147.5C 131.948,145.942 129.781,144.608 127.5,143.5C 125.085,142.695 122.751,141.695 120.5,140.5C 118.184,139.194 115.85,137.861 113.5,136.5C 112.679,133.553 112.179,130.553 112,127.5C 110.421,125.959 108.587,124.792 106.5,124C 107.416,123.722 108.082,123.222 108.5,122.5C 109.451,121.081 109.784,119.415 109.5,117.5 Z"/></g>
<g><path style="opacity:1" fill="#3c383a" d="M 86.5,132.5 C 86.9028,135.486 87.9028,138.152 89.5,140.5C 89.5,141.167 89.5,141.833 89.5,142.5C 88.4226,141.982 87.2559,141.648 86,141.5C 83.2687,142.617 80.4353,143.283 77.5,143.5C 75.9803,139.729 74.3136,136.062 72.5,132.5C 72.5,131.833 72.5,131.167 72.5,130.5C 73.2646,130.923 74.0979,131.257 75,131.5C 78.4019,130.274 81.9019,129.607 85.5,129.5C 85.2627,130.791 85.596,131.791 86.5,132.5 Z"/></g>
<g><path style="opacity:1" fill="#515051" d="M 164.5,127.5 C 165.451,128.919 165.784,130.585 165.5,132.5C 168.539,131.99 171.539,131.323 174.5,130.5C 175.5,130.5 176.5,130.5 177.5,130.5C 177.665,133.85 177.498,137.183 177,140.5C 172.38,142.31 168.046,144.643 164,147.5C 163.333,150.167 163.333,152.833 164,155.5C 168.62,153.69 172.954,151.357 177,148.5C 177.179,151.553 177.679,154.553 178.5,157.5C 180.662,155.98 182.995,154.98 185.5,154.5C 185.5,157.167 185.5,159.833 185.5,162.5C 181.139,165.347 176.472,167.681 171.5,169.5C 170.526,167.257 170.192,164.924 170.5,162.5C 168.323,162.586 166.323,163.253 164.5,164.5C 163.833,161.833 163.167,159.167 162.5,156.5C 158.379,158.644 154.212,160.644 150,162.5C 147.98,156.748 149.813,153.081 155.5,151.5C 156.496,145.537 156.829,139.537 156.5,133.5C 159.593,131.966 162.26,129.966 164.5,127.5 Z"/></g>
<g><path style="opacity:1" fill="#302324" d="M 69.5,132.5 C 70.5,132.5 71.5,132.5 72.5,132.5C 74.3136,136.062 75.9803,139.729 77.5,143.5C 77.5,144.5 77.5,145.5 77.5,146.5C 76.8485,145.909 76.1818,145.243 75.5,144.5C 72.3155,145.422 69.1489,146.422 66,147.5C 64.9889,146.944 64.1556,146.278 63.5,145.5C 62.5778,141.888 61.9111,138.221 61.5,134.5C 63.8056,134.007 66.139,133.674 68.5,133.5C 69.1667,133.5 69.5,133.167 69.5,132.5 Z"/></g>
<g><path style="opacity:0.993" fill="#3b3c3b" d="M 257.5,135.5 C 257.335,138.518 257.502,141.518 258,144.5C 260.157,142.505 262.657,141.172 265.5,140.5C 265.5,143.5 265.5,146.5 265.5,149.5C 255.5,154.5 245.5,159.5 235.5,164.5C 233.388,165.594 231.221,166.594 229,167.5C 228.5,173.825 228.334,180.158 228.5,186.5C 226.323,186.586 224.323,187.253 222.5,188.5C 221.67,182.862 221.17,177.196 221,171.5C 218.523,172.907 216.023,174.241 213.5,175.5C 214.036,172.302 213.369,169.635 211.5,167.5C 212.833,166.833 214.167,166.167 215.5,165.5C 217.386,164.639 219.22,163.639 221,162.5C 220.295,156.74 222.462,152.74 227.5,150.5C 228.167,153.167 228.833,155.833 229.5,158.5C 231.332,157.752 232.999,156.752 234.5,155.5C 235.496,149.537 235.829,143.537 235.5,137.5C 240.419,135.707 245.086,133.374 249.5,130.5C 250.321,133.447 250.821,136.447 251,139.5C 252.944,137.779 255.11,136.446 257.5,135.5 Z"/></g>
<g><path style="opacity:1" fill="#575857" d="M 32.5,132.5 C 35.1667,133.5 37.8333,134.5 40.5,135.5C 47.8999,139.53 55.2332,143.53 62.5,147.5C 61.8333,147.5 61.5,147.833 61.5,148.5C 58.5,149.167 55.5,149.833 52.5,150.5C 47.1013,147.965 41.7679,145.132 36.5,142C 35.2068,141.51 33.8734,141.343 32.5,141.5C 32.5,138.5 32.5,135.5 32.5,132.5 Z"/></g>
<g><path style="opacity:1" fill="#636363" d="M 108.5,122.5 C 108.082,123.222 107.416,123.722 106.5,124C 108.587,124.792 110.421,125.959 112,127.5C 112.179,130.553 112.679,133.553 113.5,136.5C 115.85,137.861 118.184,139.194 120.5,140.5C 120.664,143.187 120.497,145.854 120,148.5C 115.296,146.565 110.796,144.231 106.5,141.5C 103.907,147.499 105.573,151.499 111.5,153.5C 112.484,156.428 112.817,159.428 112.5,162.5C 112.5,165.5 112.5,168.5 112.5,171.5C 110.534,170.559 108.534,169.559 106.5,168.5C 105.833,171.167 105.167,173.833 104.5,176.5C 102.757,174.962 100.757,173.962 98.5,173.5C 98.5,173.167 98.5,172.833 98.5,172.5C 100.026,166.737 98.0264,163.07 92.5,161.5C 91.52,158.914 91.1866,156.247 91.5,153.5C 91.0889,149.779 90.4222,146.112 89.5,142.5C 89.5,141.833 89.5,141.167 89.5,140.5C 93.0756,139.515 96.7423,138.848 100.5,138.5C 100.043,133.799 99.3764,129.132 98.5,124.5C 101.789,123.626 105.123,122.959 108.5,122.5 Z"/></g>
<g><path style="opacity:1" fill="#4f4f4f" d="M 120.5,140.5 C 122.751,141.695 125.085,142.695 127.5,143.5C 127.5,149.167 127.5,154.833 127.5,160.5C 125.173,160.753 123.173,160.086 121.5,158.5C 120.52,161.086 120.187,163.753 120.5,166.5C 117.86,165.18 115.193,163.847 112.5,162.5C 112.817,159.428 112.484,156.428 111.5,153.5C 105.573,151.499 103.907,147.499 106.5,141.5C 110.796,144.231 115.296,146.565 120,148.5C 120.497,145.854 120.664,143.187 120.5,140.5 Z"/></g>
<g><path style="opacity:1" fill="#3e3e3e" d="M 177.5,127.5 C 178.268,128.263 178.768,129.263 179,130.5C 181.052,129.207 183.219,128.207 185.5,127.5C 185.169,136.192 185.502,144.859 186.5,153.5C 188.413,152.627 190.247,151.627 192,150.5C 192.498,153.482 192.665,156.482 192.5,159.5C 190.249,160.695 187.915,161.695 185.5,162.5C 185.5,159.833 185.5,157.167 185.5,154.5C 182.995,154.98 180.662,155.98 178.5,157.5C 177.679,154.553 177.179,151.553 177,148.5C 172.954,151.357 168.62,153.69 164,155.5C 163.333,152.833 163.333,150.167 164,147.5C 168.046,144.643 172.38,142.31 177,140.5C 177.498,137.183 177.665,133.85 177.5,130.5C 176.5,130.5 175.5,130.5 174.5,130.5C 175.9,129.9 176.9,128.9 177.5,127.5 Z"/></g>
<g><path style="opacity:0.964" fill="#4d4d4d" d="M 32.5,141.5 C 33.8734,141.343 35.2068,141.51 36.5,142C 41.7679,145.132 47.1013,147.965 52.5,150.5C 53.1667,153.833 53.8333,157.167 54.5,160.5C 47.4455,156.306 40.1122,152.639 32.5,149.5C 32.5,146.833 32.5,144.167 32.5,141.5 Z"/></g>
<g><path style="opacity:1" fill="#231113" d="M 89.5,142.5 C 90.4222,146.112 91.0889,149.779 91.5,153.5C 88.2107,154.374 84.8774,155.041 81.5,155.5C 80.2502,155.423 79.4169,154.756 79,153.5C 78.5604,151.134 78.0604,148.801 77.5,146.5C 77.5,145.5 77.5,144.5 77.5,143.5C 80.4353,143.283 83.2687,142.617 86,141.5C 87.2559,141.648 88.4226,141.982 89.5,142.5 Z"/></g>
<g><path style="opacity:1" fill="#433e40" d="M 77.5,146.5 C 78.0604,148.801 78.5604,151.134 79,153.5C 79.4169,154.756 80.2502,155.423 81.5,155.5C 81.1667,156.167 80.8333,156.833 80.5,157.5C 76.3837,157.541 72.3837,158.207 68.5,159.5C 66.5392,156.551 65.3726,153.218 65,149.5C 63.9887,148.663 62.8221,148.33 61.5,148.5C 61.5,147.833 61.8333,147.5 62.5,147.5C 63.3382,147.158 63.6716,146.492 63.5,145.5C 64.1556,146.278 64.9889,146.944 66,147.5C 69.1489,146.422 72.3155,145.422 75.5,144.5C 76.1818,145.243 76.8485,145.909 77.5,146.5 Z"/></g>
<g><path style="opacity:1" fill="#2f2223" d="M 61.5,148.5 C 62.8221,148.33 63.9887,148.663 65,149.5C 65.3726,153.218 66.5392,156.551 68.5,159.5C 68.5,160.5 68.5,161.5 68.5,162.5C 67.7387,161.609 66.7387,160.942 65.5,160.5C 61.7865,161.79 58.1198,162.124 54.5,161.5C 54.5,161.167 54.5,160.833 54.5,160.5C 53.8333,157.167 53.1667,153.833 52.5,150.5C 55.5,149.833 58.5,149.167 61.5,148.5 Z"/></g>
<g><path style="opacity:0.967" fill="#7b787b" d="M 32.5,149.5 C 40.1122,152.639 47.4455,156.306 54.5,160.5C 54.5,160.833 54.5,161.167 54.5,161.5C 54.5,162.167 54.5,162.833 54.5,163.5C 52.5648,164.15 50.5648,164.483 48.5,164.5C 42.9584,163.097 37.6251,161.097 32.5,158.5C 32.5,155.5 32.5,152.5 32.5,149.5 Z"/></g>
<g><path style="opacity:0.985" fill="#5d5b5d" d="M 265.5,149.5 C 265.5,152.5 265.5,155.5 265.5,158.5C 255.734,163.717 245.734,168.383 235.5,172.5C 235.5,169.833 235.5,167.167 235.5,164.5C 245.5,159.5 255.5,154.5 265.5,149.5 Z"/></g>
<g><path style="opacity:1" fill="#404140" d="M 215.5,165.5 C 214.167,166.167 212.833,166.833 211.5,167.5C 205.252,170.693 198.919,173.693 192.5,176.5C 192.264,173.391 192.597,170.391 193.5,167.5C 195.258,167.123 196.925,166.456 198.5,165.5C 199.2,161.959 199.867,158.459 200.5,155C 202.519,154.55 204.352,153.717 206,152.5C 206.497,155.146 206.664,157.813 206.5,160.5C 208.677,160.414 210.677,159.747 212.5,158.5C 212.938,161.295 213.938,163.628 215.5,165.5 Z"/></g>
<g><path style="opacity:1" fill="#545654" d="M 91.5,153.5 C 91.1866,156.247 91.52,158.914 92.5,161.5C 98.0264,163.07 100.026,166.737 98.5,172.5C 93.1902,170.21 87.8569,167.877 82.5,165.5C 81.6295,162.888 80.9628,160.221 80.5,157.5C 80.8333,156.833 81.1667,156.167 81.5,155.5C 84.8774,155.041 88.2107,154.374 91.5,153.5 Z"/></g>
<g><path style="opacity:0.948" fill="#656565" d="M 32.5,158.5 C 37.6251,161.097 42.9584,163.097 48.5,164.5C 46.3283,165.128 44.6616,166.462 43.5,168.5C 44.1712,171.185 44.8379,173.852 45.5,176.5C 45.5,177.5 45.5,178.5 45.5,179.5C 41.9288,180.642 38.2621,181.309 34.5,181.5C 35.0078,185.197 35.6745,188.864 36.5,192.5C 36.6495,193.552 36.4828,194.552 36,195.5C 34.8873,194.695 33.7206,194.028 32.5,193.5C 32.19,181.886 32.19,170.22 32.5,158.5 Z"/></g>
<g><path style="opacity:1" fill="#484748" d="M 156.5,133.5 C 156.829,139.537 156.496,145.537 155.5,151.5C 149.813,153.081 147.98,156.748 150,162.5C 154.212,160.644 158.379,158.644 162.5,156.5C 163.167,159.167 163.833,161.833 164.5,164.5C 166.323,163.253 168.323,162.586 170.5,162.5C 170.192,164.924 170.526,167.257 171.5,169.5C 176.472,167.681 181.139,165.347 185.5,162.5C 187.915,161.695 190.249,160.695 192.5,159.5C 192.194,162.385 192.527,165.052 193.5,167.5C 192.597,170.391 192.264,173.391 192.5,176.5C 192.5,176.833 192.5,177.167 192.5,177.5C 190.254,178.455 187.921,179.122 185.5,179.5C 185.808,177.076 185.474,174.743 184.5,172.5C 174.934,177.45 165.267,182.117 155.5,186.5C 155.665,189.518 155.498,192.518 155,195.5C 153.333,196.5 151.667,197.5 150,198.5C 149.833,199.833 149.667,201.167 149.5,202.5C 149.585,204.333 150.252,205.666 151.5,206.5C 151.158,207.338 150.492,207.672 149.5,207.5C 149.167,207.5 148.833,207.5 148.5,207.5C 148.5,207.167 148.5,206.833 148.5,206.5C 149.899,201.027 148.066,197.36 143,195.5C 142.5,183.505 142.333,171.505 142.5,159.5C 142.5,151.167 142.5,142.833 142.5,134.5C 144.936,134.317 147.103,134.984 149,136.5C 151.464,135.349 153.964,134.349 156.5,133.5 Z"/></g>
<g><path style="opacity:1" fill="#3b383a" d="M 68.5,162.5 C 69.1667,165.833 69.8333,169.167 70.5,172.5C 66.5638,172.733 62.8972,173.733 59.5,175.5C 57.7808,172.141 56.6141,168.475 56,164.5C 55.6174,163.944 55.1174,163.611 54.5,163.5C 54.5,162.833 54.5,162.167 54.5,161.5C 58.1198,162.124 61.7865,161.79 65.5,160.5C 66.7387,160.942 67.7387,161.609 68.5,162.5 Z"/></g>
<g><path style="opacity:1" fill="#6e6d6e" d="M 112.5,162.5 C 115.193,163.847 117.86,165.18 120.5,166.5C 120.5,166.833 120.5,167.167 120.5,167.5C 120.664,170.187 120.497,172.854 120,175.5C 117.367,174.248 114.867,172.914 112.5,171.5C 112.5,168.5 112.5,165.5 112.5,162.5 Z"/></g>
<g><path style="opacity:1" fill="#312323" d="M 54.5,163.5 C 55.1174,163.611 55.6174,163.944 56,164.5C 56.6141,168.475 57.7808,172.141 59.5,175.5C 59.5,176.167 59.5,176.833 59.5,177.5C 55.4451,176.281 51.4451,176.614 47.5,178.5C 46.8182,177.757 46.1515,177.091 45.5,176.5C 44.8379,173.852 44.1712,171.185 43.5,168.5C 44.6616,166.462 46.3283,165.128 48.5,164.5C 50.5648,164.483 52.5648,164.15 54.5,163.5 Z"/></g>
<g><path style="opacity:1" fill="#4e4e4e" d="M 265.5,158.5 C 265.5,173.167 265.5,187.833 265.5,202.5C 262.768,203.866 260.101,205.199 257.5,206.5C 255.243,206.962 253.243,207.962 251.5,209.5C 250.502,200.859 250.169,192.192 250.5,183.5C 248.249,184.695 245.915,185.695 243.5,186.5C 239.139,189.347 234.472,191.681 229.5,193.5C 228.526,191.257 228.192,188.924 228.5,186.5C 228.334,180.158 228.5,173.825 229,167.5C 231.221,166.594 233.388,165.594 235.5,164.5C 235.5,167.167 235.5,169.833 235.5,172.5C 245.734,168.383 255.734,163.717 265.5,158.5 Z"/></g>
<g><path style="opacity:1" fill="#525252" d="M 74.5,171.5 C 77.5729,172.199 80.5729,173.199 83.5,174.5C 84.4982,183.475 84.8315,192.475 84.5,201.5C 83.209,201.737 82.209,201.404 81.5,200.5C 82.7479,199.666 83.4146,198.333 83.5,196.5C 83.1667,195.167 82.8333,193.833 82.5,192.5C 80.6675,191.752 79.0009,190.752 77.5,189.5C 77.1169,184.872 75.9503,180.538 74,176.5C 73.51,177.793 73.3433,179.127 73.5,180.5C 72.087,177.781 71.4203,174.781 71.5,171.5C 72.5,171.5 73.5,171.5 74.5,171.5 Z"/></g>
<g><path style="opacity:1" fill="#3c3c3c" d="M 250.5,183.5 C 250.335,180.482 250.502,177.482 251,174.5C 253.088,173.692 255.088,172.692 257,171.5C 257.667,174.167 257.667,176.833 257,179.5C 254.722,180.719 252.555,182.052 250.5,183.5 Z"/></g>
<g><path style="opacity:1" fill="#515151" d="M 142.5,159.5 C 142.333,171.505 142.5,183.505 143,195.5C 148.066,197.36 149.899,201.027 148.5,206.5C 139.612,202.937 130.946,198.937 122.5,194.5C 119.376,192.943 116.209,191.277 113,189.5C 112.502,192.482 112.335,195.482 112.5,198.5C 112.5,201.167 112.5,203.833 112.5,206.5C 110.323,206.414 108.323,205.747 106.5,204.5C 105.526,206.743 105.192,209.076 105.5,211.5C 103.079,211.122 100.746,210.455 98.5,209.5C 98.5,209.167 98.5,208.833 98.5,208.5C 97.1928,200.804 99.3595,199.138 105,203.5C 105.498,200.518 105.665,197.518 105.5,194.5C 105.817,191.428 105.484,188.428 104.5,185.5C 101.941,184.392 99.6076,183.059 97.5,181.5C 98.4731,179.052 98.8064,176.385 98.5,173.5C 100.757,173.962 102.757,174.962 104.5,176.5C 105.167,173.833 105.833,171.167 106.5,168.5C 108.534,169.559 110.534,170.559 112.5,171.5C 114.867,172.914 117.367,174.248 120,175.5C 120.497,172.854 120.664,170.187 120.5,167.5C 123.157,167.935 125.491,168.935 127.5,170.5C 127.334,176.176 127.501,181.843 128,187.5C 130,188.833 132,190.167 134,191.5C 134.498,188.518 134.665,185.518 134.5,182.5C 136.461,184.312 138.794,185.312 141.5,185.5C 141.817,182.428 141.484,179.428 140.5,176.5C 138.677,175.253 136.677,174.586 134.5,174.5C 133.833,173.833 133.167,173.167 132.5,172.5C 134.344,170.721 135.01,168.388 134.5,165.5C 136.677,165.586 138.677,166.253 140.5,167.5C 141.168,164.694 141.834,162.028 142.5,159.5 Z"/></g>
<g><path style="opacity:1" fill="#484748" d="M 127.5,170.5 C 129.167,171.167 130.833,171.833 132.5,172.5C 133.167,173.167 133.833,173.833 134.5,174.5C 134.5,177.167 134.5,179.833 134.5,182.5C 134.665,185.518 134.498,188.518 134,191.5C 132,190.167 130,188.833 128,187.5C 127.501,181.843 127.334,176.176 127.5,170.5 Z"/></g>
<g><path style="opacity:1" fill="#5f5d5f" d="M 134.5,174.5 C 136.677,174.586 138.677,175.253 140.5,176.5C 141.484,179.428 141.817,182.428 141.5,185.5C 138.794,185.312 136.461,184.312 134.5,182.5C 134.5,179.833 134.5,177.167 134.5,174.5 Z"/></g>
<g><path style="opacity:1" fill="#714441" d="M 45.5,176.5 C 46.1515,177.091 46.8182,177.757 47.5,178.5C 51.4451,176.614 55.4451,176.281 59.5,177.5C 60.5828,181.085 61.2494,184.751 61.5,188.5C 58.5794,188.283 55.9128,188.949 53.5,190.5C 52.0222,190.762 50.6888,190.429 49.5,189.5C 48.7308,186.49 47.8974,183.49 47,180.5C 46.6174,179.944 46.1174,179.611 45.5,179.5C 45.5,178.5 45.5,177.5 45.5,176.5 Z"/></g>
<g><path style="opacity:1" fill="#565556" d="M 155.5,186.5 C 153.527,187.487 151.527,188.487 149.5,189.5C 148.337,183.863 148.17,178.196 149,172.5C 150.753,171.373 152.587,170.373 154.5,169.5C 155.495,175.128 155.829,180.794 155.5,186.5 Z"/></g>
<g><path style="opacity:1" fill="#312222" d="M 45.5,179.5 C 46.1174,179.611 46.6174,179.944 47,180.5C 47.8974,183.49 48.7308,186.49 49.5,189.5C 50.6888,190.429 52.0222,190.762 53.5,190.5C 48.6095,191.412 43.6095,192.412 38.5,193.5C 38.5,194.5 38.5,195.5 38.5,196.5C 37.8333,195.167 37.1667,193.833 36.5,192.5C 35.6745,188.864 35.0078,185.197 34.5,181.5C 38.2621,181.309 41.9288,180.642 45.5,179.5 Z"/></g>
<g><path style="opacity:1" fill="#6b6b6b" d="M 97.5,181.5 C 99.6076,183.059 101.941,184.392 104.5,185.5C 105.484,188.428 105.817,191.428 105.5,194.5C 103.229,193.316 100.895,192.316 98.5,191.5C 98.5,194.167 98.5,196.833 98.5,199.5C 96.079,199.122 93.7457,198.455 91.5,197.5C 91.5,191.5 91.5,185.5 91.5,179.5C 93.7028,179.604 95.7028,180.27 97.5,181.5 Z"/></g>
<g><path style="opacity:1" fill="#4d4c4d" d="M 228.5,186.5 C 228.192,188.924 228.526,191.257 229.5,193.5C 234.472,191.681 239.139,189.347 243.5,186.5C 243.5,195.5 243.5,204.5 243.5,213.5C 240.975,214.681 238.475,216.014 236,217.5C 236.705,223.26 234.538,227.26 229.5,229.5C 228.833,226.833 228.167,224.167 227.5,221.5C 222.768,223.846 218.101,226.179 213.5,228.5C 213.826,219.651 213.493,210.984 212.5,202.5C 215.264,200.762 218.264,199.428 221.5,198.5C 221.665,195.482 221.498,192.482 221,189.5C 216.894,191.593 212.727,193.593 208.5,195.5C 207.505,189.872 207.171,184.206 207.5,178.5C 209.5,177.5 211.5,176.5 213.5,175.5C 216.023,174.241 218.523,172.907 221,171.5C 221.17,177.196 221.67,182.862 222.5,188.5C 224.323,187.253 226.323,186.586 228.5,186.5 Z"/></g>
<g><path style="opacity:1" fill="#241214" d="M 80.5,157.5 C 80.9628,160.221 81.6295,162.888 82.5,165.5C 82.67,166.822 82.3366,167.989 81.5,169C 79.0731,169.902 76.7397,170.736 74.5,171.5C 73.5,171.5 72.5,171.5 71.5,171.5C 71.4203,174.781 72.087,177.781 73.5,180.5C 73.5,182.167 73.5,183.833 73.5,185.5C 71.901,185.232 70.5676,185.566 69.5,186.5C 67.139,186.674 64.8056,187.007 62.5,187.5C 63.3434,191.873 64.3434,196.207 65.5,200.5C 64.209,200.263 63.209,200.596 62.5,201.5C 55.2133,203.381 47.88,205.048 40.5,206.5C 39.6261,203.211 38.9595,199.877 38.5,196.5C 38.5,195.5 38.5,194.5 38.5,193.5C 43.6095,192.412 48.6095,191.412 53.5,190.5C 55.9128,188.949 58.5794,188.283 61.5,188.5C 61.2494,184.751 60.5828,181.085 59.5,177.5C 59.5,176.833 59.5,176.167 59.5,175.5C 62.8972,173.733 66.5638,172.733 70.5,172.5C 69.8333,169.167 69.1667,165.833 68.5,162.5C 68.5,161.5 68.5,160.5 68.5,159.5C 72.3837,158.207 76.3837,157.541 80.5,157.5 Z"/></g>
<g><path style="opacity:1" fill="#615f61" d="M 81.5,200.5 C 77.767,198.797 74.1003,196.797 70.5,194.5C 69.52,191.914 69.1866,189.247 69.5,186.5C 70.5676,185.566 71.901,185.232 73.5,185.5C 73.5,183.833 73.5,182.167 73.5,180.5C 73.3433,179.127 73.51,177.793 74,176.5C 75.9503,180.538 77.1169,184.872 77.5,189.5C 79.0009,190.752 80.6675,191.752 82.5,192.5C 82.8333,193.833 83.1667,195.167 83.5,196.5C 83.4146,198.333 82.7479,199.666 81.5,200.5 Z"/></g>
<g><path style="opacity:1" fill="#6d6c6d" d="M 122.5,194.5 C 120.656,196.279 119.99,198.612 120.5,201.5C 117.673,200.892 115.007,199.892 112.5,198.5C 112.335,195.482 112.502,192.482 113,189.5C 116.209,191.277 119.376,192.943 122.5,194.5 Z"/></g>
<g><path style="opacity:1" fill="#7b787b" d="M 122.5,194.5 C 130.946,198.937 139.612,202.937 148.5,206.5C 148.5,206.833 148.5,207.167 148.5,207.5C 148.813,210.247 148.48,212.914 147.5,215.5C 138.323,211.079 129.323,206.412 120.5,201.5C 119.99,198.612 120.656,196.279 122.5,194.5 Z"/></g>
<g><path style="opacity:1" fill="#4c4c4c" d="M 199.5,200.5 C 199.817,203.572 199.484,206.572 198.5,209.5C 196.396,210.519 194.396,211.519 192.5,212.5C 190.243,212.962 188.243,213.962 186.5,215.5C 185.833,212.833 185.167,210.167 184.5,207.5C 182.338,209.02 180.005,210.02 177.5,210.5C 177.171,204.463 177.504,198.463 178.5,192.5C 183.229,190.464 187.896,188.464 192.5,186.5C 192.171,192.206 192.505,197.872 193.5,203.5C 195.243,201.962 197.243,200.962 199.5,200.5 Z"/></g>
<g><path style="opacity:1" fill="#444444" d="M 207.5,178.5 C 207.171,184.206 207.505,189.872 208.5,195.5C 212.727,193.593 216.894,191.593 221,189.5C 221.498,192.482 221.665,195.482 221.5,198.5C 218.264,199.428 215.264,200.762 212.5,202.5C 211.193,203.153 209.86,203.82 208.5,204.5C 207.335,213.482 207.168,222.482 208,231.5C 209.78,230.361 211.614,229.361 213.5,228.5C 213.5,231.5 213.5,234.5 213.5,237.5C 211.243,237.962 209.243,238.962 207.5,240.5C 206.172,219.671 206.172,199.004 207.5,178.5 Z"/></g>
<g><path style="opacity:1" fill="#605e60" d="M 105.5,194.5 C 105.665,197.518 105.498,200.518 105,203.5C 99.3595,199.138 97.1928,200.804 98.5,208.5C 96.2872,207.227 93.9538,206.227 91.5,205.5C 91.5,202.833 91.5,200.167 91.5,197.5C 93.7457,198.455 96.079,199.122 98.5,199.5C 98.5,196.833 98.5,194.167 98.5,191.5C 100.895,192.316 103.229,193.316 105.5,194.5 Z"/></g>
<g><path style="opacity:1" fill="#5d5b5d" d="M 170.5,206.5 C 163.657,209.752 156.657,212.752 149.5,215.5C 149.5,212.833 149.5,210.167 149.5,207.5C 150.492,207.672 151.158,207.338 151.5,206.5C 157.439,203.53 163.439,200.53 169.5,197.5C 170.484,200.428 170.817,203.428 170.5,206.5 Z"/></g>
<g><path style="opacity:1" fill="#383838" d="M 250.5,183.5 C 250.169,192.192 250.502,200.859 251.5,209.5C 253.243,207.962 255.243,206.962 257.5,206.5C 257.665,209.518 257.498,212.518 257,215.5C 252.45,217.459 248.117,219.792 244,222.5C 243.502,219.518 243.335,216.518 243.5,213.5C 243.5,204.5 243.5,195.5 243.5,186.5C 245.915,185.695 248.249,184.695 250.5,183.5 Z"/></g>
<g><path style="opacity:0.958" fill="#575757" d="M 36.5,192.5 C 37.1667,193.833 37.8333,195.167 38.5,196.5C 38.9595,199.877 39.6261,203.211 40.5,206.5C 47.88,205.048 55.2133,203.381 62.5,201.5C 62.6633,203.857 62.4966,206.19 62,208.5C 55.2708,203.542 53.1041,205.208 55.5,213.5C 57.8505,214.861 60.1838,216.194 62.5,217.5C 62.5,220.167 62.5,222.833 62.5,225.5C 53.7442,221.623 45.0776,217.456 36.5,213C 35.2068,212.51 33.8734,212.343 32.5,212.5C 32.5,206.167 32.5,199.833 32.5,193.5C 33.7206,194.028 34.8873,194.695 36,195.5C 36.4828,194.552 36.6495,193.552 36.5,192.5 Z"/></g>
<g><path style="opacity:1" fill="#5c5a5c" d="M 212.5,202.5 C 213.493,210.984 213.826,219.651 213.5,228.5C 211.614,229.361 209.78,230.361 208,231.5C 207.168,222.482 207.335,213.482 208.5,204.5C 209.86,203.82 211.193,203.153 212.5,202.5 Z"/></g>
<g><path style="opacity:1" fill="#7c797c" d="M 91.5,205.5 C 93.9538,206.227 96.2872,207.227 98.5,208.5C 98.5,208.833 98.5,209.167 98.5,209.5C 98.8288,215.206 98.4954,220.872 97.5,226.5C 95.4734,225.487 93.4734,224.487 91.5,223.5C 91.5,217.5 91.5,211.5 91.5,205.5 Z"/></g>
<g><path style="opacity:1" fill="#6b6a6b" d="M 65.5,200.5 C 71.2446,204.371 77.2446,207.704 83.5,210.5C 85.3218,219.559 83.1551,221.225 77,215.5C 76.6667,218.5 76.3333,221.5 76,224.5C 71.8345,221.501 67.3345,219.167 62.5,217.5C 60.1838,216.194 57.8505,214.861 55.5,213.5C 53.1041,205.208 55.2708,203.542 62,208.5C 62.4966,206.19 62.6633,203.857 62.5,201.5C 63.209,200.596 64.209,200.263 65.5,200.5 Z"/></g>
<g><path style="opacity:1" fill="#3c3c3c" d="M 192.5,177.5 C 191.193,185.196 193.36,186.862 199,182.5C 199.499,188.491 199.666,194.491 199.5,200.5C 197.243,200.962 195.243,201.962 193.5,203.5C 192.505,197.872 192.171,192.206 192.5,186.5C 187.896,188.464 183.229,190.464 178.5,192.5C 177.504,198.463 177.171,204.463 177.5,210.5C 180.005,210.02 182.338,209.02 184.5,207.5C 185.167,210.167 185.833,212.833 186.5,215.5C 188.243,213.962 190.243,212.962 192.5,212.5C 192.5,215.167 192.5,217.833 192.5,220.5C 187.652,223.312 182.652,225.978 177.5,228.5C 177.666,222.824 177.499,217.157 177,211.5C 174.912,212.308 172.912,213.308 171,214.5C 170.503,211.854 170.336,209.187 170.5,206.5C 170.817,203.428 170.484,200.428 169.5,197.5C 163.439,200.53 157.439,203.53 151.5,206.5C 150.252,205.666 149.585,204.333 149.5,202.5C 149.667,201.167 149.833,199.833 150,198.5C 151.667,197.5 153.333,196.5 155,195.5C 155.498,192.518 155.665,189.518 155.5,186.5C 165.267,182.117 174.934,177.45 184.5,172.5C 185.474,174.743 185.808,177.076 185.5,179.5C 187.921,179.122 190.254,178.455 192.5,177.5 Z"/></g>
<g><path style="opacity:1" fill="#676667" d="M 112.5,198.5 C 115.007,199.892 117.673,200.892 120.5,201.5C 129.323,206.412 138.323,211.079 147.5,215.5C 148.48,212.914 148.813,210.247 148.5,207.5C 148.833,207.5 149.167,207.5 149.5,207.5C 149.5,210.167 149.5,212.833 149.5,215.5C 149.5,215.833 149.5,216.167 149.5,216.5C 148.669,227.993 148.169,239.659 148,251.5C 146.333,250.5 144.667,249.5 143,248.5C 142.667,245.5 142.333,242.5 142,239.5C 139.658,237.885 137.158,236.551 134.5,235.5C 134.187,232.753 134.52,230.086 135.5,227.5C 142.049,231.701 144.049,229.701 141.5,221.5C 139.358,220.399 137.192,219.399 135,218.5C 134.667,221.167 134.333,223.833 134,226.5C 132.088,225.308 130.088,224.308 128,223.5C 127.5,232.16 127.334,240.827 127.5,249.5C 125.02,248.758 122.687,247.758 120.5,246.5C 120.784,243.223 120.451,240.057 119.5,237C 117.254,235.961 115.087,234.794 113,233.5C 112.818,236.226 112.318,238.893 111.5,241.5C 104.629,238.772 98.1289,235.439 92,231.5C 91.5026,228.854 91.3359,226.187 91.5,223.5C 93.4734,224.487 95.4734,225.487 97.5,226.5C 98.4954,220.872 98.8288,215.206 98.5,209.5C 100.746,210.455 103.079,211.122 105.5,211.5C 105.192,209.076 105.526,206.743 106.5,204.5C 108.323,205.747 110.323,206.414 112.5,206.5C 112.5,203.833 112.5,201.167 112.5,198.5 Z"/></g>
<g><path style="opacity:1" fill="#4e4d4e" d="M 170.5,206.5 C 170.336,209.187 170.503,211.854 171,214.5C 172.912,213.308 174.912,212.308 177,211.5C 177.499,217.157 177.666,222.824 177.5,228.5C 175.445,229.948 173.278,231.281 171,232.5C 169.132,239.578 171.132,241.578 177,238.5C 177.497,241.146 177.664,243.813 177.5,246.5C 175.534,247.441 173.534,248.441 171.5,249.5C 170.833,246.833 170.167,244.167 169.5,241.5C 164.101,243.398 162.434,247.065 164.5,252.5C 166.167,251.833 167.833,251.167 169.5,250.5C 172.083,256.576 170.249,260.576 164,262.5C 163.667,259.5 163.333,256.5 163,253.5C 158.785,256.181 154.285,258.181 149.5,259.5C 149.5,245.167 149.5,230.833 149.5,216.5C 149.5,216.167 149.5,215.833 149.5,215.5C 156.657,212.752 163.657,209.752 170.5,206.5 Z"/></g>
<g><path style="opacity:0.955" fill="#494849" d="M 82.5,165.5 C 87.8569,167.877 93.1902,170.21 98.5,172.5C 98.5,172.833 98.5,173.167 98.5,173.5C 98.8064,176.385 98.4731,179.052 97.5,181.5C 95.7028,180.27 93.7028,179.604 91.5,179.5C 91.5,185.5 91.5,191.5 91.5,197.5C 91.5,200.167 91.5,202.833 91.5,205.5C 90.3405,216.993 90.1739,228.659 91,240.5C 96.0947,242.901 100.928,245.568 105.5,248.5C 105.5,251.167 105.5,253.833 105.5,256.5C 95.1409,251.987 85.1409,246.987 75.5,241.5C 75.9174,238.841 76.9174,236.508 78.5,234.5C 80.3863,235.361 82.2196,236.361 84,237.5C 84.824,228.324 84.6573,219.324 83.5,210.5C 77.2446,207.704 71.2446,204.371 65.5,200.5C 64.3434,196.207 63.3434,191.873 62.5,187.5C 64.8056,187.007 67.139,186.674 69.5,186.5C 69.1866,189.247 69.52,191.914 70.5,194.5C 74.1003,196.797 77.767,198.797 81.5,200.5C 82.209,201.404 83.209,201.737 84.5,201.5C 84.8315,192.475 84.4982,183.475 83.5,174.5C 80.5729,173.199 77.5729,172.199 74.5,171.5C 76.7397,170.736 79.0731,169.902 81.5,169C 82.3366,167.989 82.67,166.822 82.5,165.5 Z"/></g>
<g><path style="opacity:0.916" fill="#4f4f4f" d="M 32.5,212.5 C 33.8734,212.343 35.2068,212.51 36.5,213C 45.0776,217.456 53.7442,221.623 62.5,225.5C 67.5415,229.021 72.8749,232.021 78.5,234.5C 76.9174,236.508 75.9174,238.841 75.5,241.5C 61.6046,234.888 47.6046,228.221 33.5,221.5C 32.5159,218.572 32.1826,215.572 32.5,212.5 Z"/></g>
<g><path style="opacity:0.92" fill="#3d3e3d" d="M 265.5,202.5 C 265.83,208.868 265.496,215.202 264.5,221.5C 250.436,228.2 236.436,234.867 222.5,241.5C 221.683,239.031 221.183,236.365 221,233.5C 218.552,234.973 216.052,236.307 213.5,237.5C 213.5,234.5 213.5,231.5 213.5,228.5C 218.101,226.179 222.768,223.846 227.5,221.5C 228.167,224.167 228.833,226.833 229.5,229.5C 234.538,227.26 236.705,223.26 236,217.5C 238.475,216.014 240.975,214.681 243.5,213.5C 243.335,216.518 243.502,219.518 244,222.5C 248.117,219.792 252.45,217.459 257,215.5C 257.498,212.518 257.665,209.518 257.5,206.5C 260.101,205.199 262.768,203.866 265.5,202.5 Z"/></g>
<g><path style="opacity:0.956" fill="#373637" d="M 211.5,167.5 C 213.369,169.635 214.036,172.302 213.5,175.5C 211.5,176.5 209.5,177.5 207.5,178.5C 206.172,199.004 206.172,219.671 207.5,240.5C 209.243,238.962 211.243,237.962 213.5,237.5C 216.052,236.307 218.552,234.973 221,233.5C 221.183,236.365 221.683,239.031 222.5,241.5C 212.818,247.008 202.818,252.008 192.5,256.5C 192.5,253.833 192.5,251.167 192.5,248.5C 194.187,246.834 196.187,245.5 198.5,244.5C 199.496,238.537 199.829,232.537 199.5,226.5C 199.5,223.833 199.5,221.167 199.5,218.5C 196.892,218.4 194.558,219.067 192.5,220.5C 192.5,217.833 192.5,215.167 192.5,212.5C 194.396,211.519 196.396,210.519 198.5,209.5C 199.484,206.572 199.817,203.572 199.5,200.5C 199.666,194.491 199.499,188.491 199,182.5C 193.36,186.862 191.193,185.196 192.5,177.5C 192.5,177.167 192.5,176.833 192.5,176.5C 198.919,173.693 205.252,170.693 211.5,167.5 Z"/></g>
<g><path style="opacity:1" fill="#555455" d="M 199.5,226.5 C 192.401,229.884 185.401,233.551 178.5,237.5C 177.516,234.572 177.183,231.572 177.5,228.5C 182.652,225.978 187.652,223.312 192.5,220.5C 194.558,219.067 196.892,218.4 199.5,218.5C 199.5,221.167 199.5,223.833 199.5,226.5 Z"/></g>
<g><path style="opacity:1" fill="#626162" d="M 83.5,210.5 C 84.6573,219.324 84.824,228.324 84,237.5C 82.2196,236.361 80.3863,235.361 78.5,234.5C 72.8749,232.021 67.5415,229.021 62.5,225.5C 62.5,222.833 62.5,220.167 62.5,217.5C 67.3345,219.167 71.8345,221.501 76,224.5C 76.3333,221.5 76.6667,218.5 77,215.5C 83.1551,221.225 85.3218,219.559 83.5,210.5 Z"/></g>
<g><path style="opacity:1" fill="#5f5d5f" d="M 149.5,216.5 C 149.5,230.833 149.5,245.167 149.5,259.5C 149.5,259.833 149.5,260.167 149.5,260.5C 146.993,259.108 144.327,258.108 141.5,257.5C 139.565,256.19 137.565,254.857 135.5,253.5C 134.504,247.537 134.171,241.537 134.5,235.5C 137.158,236.551 139.658,237.885 142,239.5C 142.333,242.5 142.667,245.5 143,248.5C 144.667,249.5 146.333,250.5 148,251.5C 148.169,239.659 148.669,227.993 149.5,216.5 Z"/></g>
<g><path style="opacity:1" fill="#5a5a5a" d="M 91.5,205.5 C 91.5,211.5 91.5,217.5 91.5,223.5C 91.3359,226.187 91.5026,228.854 92,231.5C 98.1289,235.439 104.629,238.772 111.5,241.5C 112.318,238.893 112.818,236.226 113,233.5C 115.087,234.794 117.254,235.961 119.5,237C 120.451,240.057 120.784,243.223 120.5,246.5C 120.665,249.518 120.498,252.518 120,255.5C 115.496,252.498 110.663,250.165 105.5,248.5C 100.928,245.568 96.0947,242.901 91,240.5C 90.1739,228.659 90.3405,216.993 91.5,205.5 Z"/></g>
<g><path style="opacity:1" fill="#494949" d="M 199.5,226.5 C 199.829,232.537 199.496,238.537 198.5,244.5C 196.187,245.5 194.187,246.834 192.5,248.5C 187.215,249.892 182.382,252.226 178,255.5C 177.502,252.518 177.335,249.518 177.5,246.5C 177.664,243.813 177.497,241.146 177,238.5C 171.132,241.578 169.132,239.578 171,232.5C 173.278,231.281 175.445,229.948 177.5,228.5C 177.183,231.572 177.516,234.572 178.5,237.5C 185.401,233.551 192.401,229.884 199.5,226.5 Z"/></g>
<g><path style="opacity:1" fill="#4a4a4a" d="M 134.5,235.5 C 134.171,241.537 134.504,247.537 135.5,253.5C 137.565,254.857 139.565,256.19 141.5,257.5C 141.664,260.187 141.497,262.854 141,265.5C 136.38,263.69 132.046,261.357 128,258.5C 127.502,255.518 127.335,252.518 127.5,249.5C 127.334,240.827 127.5,232.16 128,223.5C 130.088,224.308 132.088,225.308 134,226.5C 134.333,223.833 134.667,221.167 135,218.5C 137.192,219.399 139.358,220.399 141.5,221.5C 144.049,229.701 142.049,231.701 135.5,227.5C 134.52,230.086 134.187,232.753 134.5,235.5 Z"/></g>
<g><path style="opacity:0.927" fill="#4f504f" d="M 120.5,246.5 C 122.687,247.758 125.02,248.758 127.5,249.5C 127.335,252.518 127.502,255.518 128,258.5C 132.046,261.357 136.38,263.69 141,265.5C 141.497,262.854 141.664,260.187 141.5,257.5C 144.327,258.108 146.993,259.108 149.5,260.5C 149.5,266.5 149.5,272.5 149.5,278.5C 134.504,271.73 119.837,264.397 105.5,256.5C 105.5,253.833 105.5,251.167 105.5,248.5C 110.663,250.165 115.496,252.498 120,255.5C 120.498,252.518 120.665,249.518 120.5,246.5 Z"/></g>
<g><path style="opacity:0.925" fill="#3d3e3d" d="M 177.5,246.5 C 177.335,249.518 177.502,252.518 178,255.5C 182.382,252.226 187.215,249.892 192.5,248.5C 192.5,251.167 192.5,253.833 192.5,256.5C 178.423,264.202 164.09,271.535 149.5,278.5C 149.5,272.5 149.5,266.5 149.5,260.5C 149.5,260.167 149.5,259.833 149.5,259.5C 154.285,258.181 158.785,256.181 163,253.5C 163.333,256.5 163.667,259.5 164,262.5C 170.249,260.576 172.083,256.576 169.5,250.5C 167.833,251.167 166.167,251.833 164.5,252.5C 162.434,247.065 164.101,243.398 169.5,241.5C 170.167,244.167 170.833,246.833 171.5,249.5C 173.534,248.441 175.534,247.441 177.5,246.5 Z"/></g>
</svg>
